<?xml version="1.0" encoding="UTF-8" standalone="no"?>
<!-- Created with Inkscape (http://www.inkscape.org/) -->

<svg
   width="210mm"
   height="297mm"
   viewBox="0 0 210 297"
   version="1.1"
   id="svg5"
   inkscape:version="1.2.1 (9c6d41e410, 2022-07-14)"
   sodipodi:docname="dessinligne1.svg"
   xmlns:inkscape="http://www.inkscape.org/namespaces/inkscape"
   xmlns:sodipodi="http://sodipodi.sourceforge.net/DTD/sodipodi-0.dtd"
   xmlns="http://www.w3.org/2000/svg"
   xmlns:svg="http://www.w3.org/2000/svg">
  <sodipodi:namedview
     id="namedview7"
     pagecolor="#ffffff"
     bordercolor="#969696"
     borderopacity="1"
     inkscape:showpageshadow="true"
     inkscape:pageopacity="0"
     inkscape:pagecheckerboard="false"
     inkscape:deskcolor="#ffffff"
     inkscape:document-units="mm"
     showgrid="false"
     inkscape:zoom="1"
     inkscape:cx="261.5"
     inkscape:cy="338"
     inkscape:window-width="1366"
     inkscape:window-height="705"
     inkscape:window-x="-8"
     inkscape:window-y="-8"
     inkscape:window-maximized="1"
     inkscape:current-layer="layer1"
     showguides="false"
     borderlayer="true"
     showborder="true" />
  <defs
     id="defs2">
    <linearGradient
       id="linearGradient20624">
      <stop
         style="stop-color:#ffb700;stop-opacity:1;"
         offset="0"
         id="stop21423" />
      <stop
         style="stop-color:#ffb700;stop-opacity:0;"
         offset="1"
         id="stop21425" />
    </linearGradient>
    <linearGradient
       id="linearGradient20624-1">
      <stop
         style="stop-color:#ffb700;stop-opacity:1;"
         offset="0"
         id="stop20620" />
      <stop
         style="stop-color:#ffb700;stop-opacity:0;"
         offset="1"
         id="stop20622" />
    </linearGradient>
  </defs>
  <g
     inkscape:label="Calque 1"
     inkscape:groupmode="layer"
     id="layer1">
    <path
       id="path79011"
       style="fill:#ffc600;stroke-width:0.264583"
       d="m 15.333948,13.705107 c -0.07279,0 -0.132292,0.05953 -0.132292,0.132291 0,0.07276 0.05949,0.132292 0.132292,0.132292 0.07279,0 0.132291,-0.05953 0.132291,-0.132292 0,-0.07276 -0.05949,-0.132291 -0.132291,-0.132291 z m 141.552082,27.913541 -43.92083,0.09819 c -24.156359,0.05396 -49.814466,0.186337 -57.017711,0.294039 l -13.096875,0.195854 -2.116666,0.564307 c -1.164165,0.31042 -3.1287,1.058188 -4.365625,1.661914 l -2.248959,1.097607 -2.122351,2.145089 -2.122867,2.145089 -1.085206,2.116666 c -1.2331,2.4051 -2.266455,5.432892 -2.84427,8.334375 -0.63181,3.172569 -1.450378,9.603944 -1.750798,13.758334 -0.15258,2.110035 -0.386492,8.479928 -0.520382,14.155208 l -0.243912,10.31875 0.254248,15.21355 c 0.13957,8.36738 0.370397,16.64228 0.513147,18.38853 0.14275,1.74625 0.393482,3.65125 0.557072,4.23334 0.446295,1.58802 1.465982,3.46595 2.509407,4.6209 0.5119,0.56662 1.505649,1.39923 2.208134,1.85001 0.702475,0.45078 2.035675,1.11714 2.96261,1.48106 2.18912,0.85942 6.293958,1.69304 9.622668,1.95389 1.455195,0.11403 9.730097,0.19406 18.388542,0.17776 l 15.742708,-0.0294 0.06976,-8.92969 0.06976,-8.92969 h 7.761283 c 4.26856,0 8.821035,-0.0729 10.116695,-0.16226 l 2.355929,-0.16278 5.937099,9.16016 5.93763,9.16016 18.11724,-0.0682 18.11775,-0.0677 0.0915,-0.2744 c 0.0503,-0.15087 -2.99994,-4.25854 -6.7784,-9.12813 l -6.86986,-8.85372 12.92996,-0.1323 c 7.11151,-0.0728 12.99624,-0.19856 13.07724,-0.27956 0.0809,-0.081 0.0613,-19.4883 -0.0439,-43.127091 z m -0.74879,0.612366 0.1757,16.891475 c 0.0967,9.290479 0.17609,28.411354 0.17622,42.490431 v 25.59844 h -7.49774 c -4.12383,0 -10.01752,0.0782 -13.09687,0.17415 l -5.59914,0.17466 v -0.30696 -0.30644 l 12.63385,-0.004 c 6.94857,-0.002 12.79031,-0.10276 12.98112,-0.22376 l 0.34675,-0.22014 -0.19017,-41.854811 c -0.10475,-23.020139 -0.26117,-41.897477 -0.34727,-41.949377 -0.0861,-0.0519 -25.15985,0.0015 -55.71908,0.118855 l -55.562496,0.213424 -2.38125,0.522966 c -1.30968,0.287748 -2.917035,0.738162 -3.571875,1.000972 -2.245885,0.901344 -4.36715,2.317605 -6.023405,4.020943 l -1.657779,1.704806 -1.326018,2.682523 -1.326534,2.682524 -0.780314,3.114539 c -0.429245,1.71291 -0.859831,4.062949 -0.956531,5.22242 l -0.1757,2.108398 0.842843,1.711524 c 0.49599,1.007495 1.300628,2.106753 1.955953,2.672188 1.229605,1.060945 3.06,2.064188 5.08186,2.784843 0.7276,0.25935 1.164987,0.480326 0.971517,0.490926 -0.514985,0.02831 -3.73249,-1.29274 -4.807975,-1.97404 -1.157895,-0.733505 -3.121121,-2.711603 -3.323311,-3.348633 -0.08359,-0.263355 -0.366457,-0.47904 -0.628902,-0.47904 h -0.476974 l -0.178284,2.050521 c -0.584685,6.735085 -0.714342,10.466497 -0.857312,24.672396 l -0.15813,15.742703 0.306958,11.1125 c 0.16899,6.11188 0.425108,11.85935 0.568958,12.77235 0.14385,0.91301 0.500698,2.30014 0.793233,3.08198 0.29255,0.78189 1.022357,1.9785 1.621607,2.65927 0.599235,0.68078 1.694968,1.6457 2.434993,2.14406 0.740025,0.49836 1.228264,0.89945 1.084689,0.89245 -0.51774,-0.0266 -2.92547,-1.77071 -3.765145,-2.72748 -1.057605,-1.20507 -1.886485,-2.79502 -2.36368,-4.53513 -0.19954,-0.72755 -0.497012,-3.88281 -0.660942,-7.01145 -0.16429,-3.13564 -0.309928,-15.00967 -0.324528,-26.45834 L 24.329786,81.570862 24.6662,76.940653 c 0.184885,-2.546605 0.461826,-5.880373 0.615466,-7.408333 0.37727,-3.75196 1.458257,-10.034766 2.116667,-12.303125 0.295665,-1.01864 1.08967,-2.983182 1.76475,-4.365625 l 1.227315,-2.513542 2.144055,-2.150256 2.144055,-2.150773 2.233973,-1.07332 c 1.22875,-0.59031 2.952584,-1.256287 3.830774,-1.480013 0.878175,-0.223722 2.723661,-0.521649 4.101041,-0.662492 1.462735,-0.149566 25.128275,-0.328389 56.898844,-0.429431 z m -1.05782,1.026811 0.1757,9.211841 c 0.0967,5.066328 0.1757,23.71793 0.1757,41.447599 v 32.236275 l -4.16718,10e-4 c -2.29195,7.8e-4 -8.04825,0.0791 -12.79199,0.17415 l -8.6248,0.1726 -9.69759,-12.48916 c -5.33357,-6.86886 -9.69709,-12.59305 -9.69709,-12.72067 0,-0.12761 7.17305,-6.082992 15.94063,-13.233816 8.76758,-7.150825 15.97983,-13.172729 16.02693,-13.382129 l 0.0853,-0.380855 -19.66444,0.01447 -19.66495,0.01395 L 89.814156,86.621586 76.452698,98.92006 76.320406,86.673263 76.188114,74.426982 58.857906,74.271952 41.527698,74.116406 39.014673,73.664754 c -1.382345,-0.24853 -3.168295,-0.640719 -3.96875,-0.871264 -2.27085,-0.65407 -4.448988,-1.864133 -5.816183,-3.231328 l -1.25212,-1.251603 -0.551387,-1.474329 -0.551904,-1.474328 0.238745,-1.685169 c 0.359975,-2.54098 0.979109,-5.315959 1.598869,-7.168554 0.305465,-0.913093 1.051501,-2.603693 1.658296,-3.756877 l 1.103292,-2.09703 1.719792,-1.740462 c 2.640265,-2.672441 5.938795,-4.218931 10.46241,-4.905127 l 2.392619,-0.362768 54.515538,-0.193787 z m -128.685165,25.986527 1.293461,1.32085 c 0.711445,0.726555 1.914013,1.669686 2.672188,2.095996 0.758175,0.426315 2.136054,1.032091 3.061829,1.346171 0.925775,0.31409 3.009388,0.819736 4.630208,1.123446 l 2.94659,0.551904 16.734896,0.12299 16.734896,0.12299 v 13.337687 13.338204 l 0.330729,-0.005 c 0.1819,-0.003 6.078473,-5.221843 14.073043,-12.567706 l 15.329295,-14.150041 17.08216,0.0098 17.08165,0.01033 -1.05834,0.908472 c -0.58203,0.499686 -10.11816,8.202891 -15.13189,12.359452 -4.7251,3.917279 -14.08006,11.632583 -14.08906,11.855093 -0.009,0.22251 7.54501,10.14831 16.78554,22.05705 9.24052,11.90875 16.80104,21.69813 16.80104,21.75423 0,0.056 -7.2331,0.0953 -16.07344,0.0873 l -16.07344,-0.0145 -9.551351,-14.73605 c -5.25328,-8.10471 -9.737496,-14.77258 -9.964766,-14.81718 -0.22829,-0.0448 -3.797934,2.71574 -7.976774,6.1681 l -7.564396,6.24871 v 8.58294 8.58191 L 59.58551,144.8915 C 51.4,144.8661 44.166908,144.8086 43.512073,144.76386 c -2.50319,-0.17074 -6.029589,-0.70273 -7.901844,-1.19217 -1.07189,-0.28021 -2.65948,-0.8685 -3.52795,-1.3069 -0.868455,-0.4384 -2.113334,-1.28901 -2.766239,-1.89084 -0.652915,-0.60183 -1.470797,-1.57901 -1.817977,-2.17144 -0.34718,-0.59242 -0.816057,-1.84973 -1.041797,-2.79363 l -0.410311,-1.71618 -0.289388,-7.27604 c -0.158915,-4.00179 -0.297491,-15.25326 -0.307991,-25.00312 l -0.01912,-17.727089 0.315226,-5.027084 c 0.17345,-2.764885 0.390858,-6.01441 0.482658,-7.221264 z m 9.048026,4.573881 h 0.529167 c 0.291035,0 0.826825,0.09536 1.190625,0.211874 l 0.661458,0.211873 h -0.529167 c -0.291045,0 -0.826825,-0.09536 -1.190625,-0.211873 z m 3.307292,0.508496 c 0.167845,0 0.335686,0.01683 0.463021,0.05013 0.254655,0.0665 0.04631,0.120923 -0.463021,0.120923 -0.50932,0 -0.717681,-0.05442 -0.463021,-0.120923 0.127335,-0.0333 0.295176,-0.05013 0.463021,-0.05013 z m 2.34766,0.262517 c 0.239777,7e-4 0.46981,0.01717 0.63252,0.04857 V 74.6373 c 0.325425,0.06277 -0.0036,0.112587 -0.731222,0.110587 -0.727595,-0.002 -0.993875,-0.0534 -0.591695,-0.114205 0.20109,-0.0302 0.45062,-0.04514 0.690397,-0.04444 z m 34.429423,0.234611 v 12.586311 12.585796 l 0.522449,-0.08423 c 0.28711,-0.0465 5.897493,-5.025879 12.467973,-11.064958 6.570465,-6.03909 12.711492,-11.664827 13.646192,-12.501562 l 1.69912,-1.521354 h 18.78852 18.788 l -15.29519,12.459187 c -8.41227,6.852449 -15.64582,12.801413 -16.07447,13.219863 l -0.77928,0.76068 0.7953,1.00149 c 0.76381,0.96178 14.60584,18.80424 27.05055,34.86815 3.26926,4.2201 6.12205,7.88128 6.33966,8.13594 l 0.39584,0.46302 -17.56947,-0.0134 -17.56999,-0.0134 -5.82083,-9.00927 -5.820832,-9.00979 -9.9627,0.0935 c -5.4795,0.0513 -9.907726,0.004 -9.840226,-0.10542 0.06747,-0.10914 4.346519,-0.19844 9.508464,-0.19844 h 9.385473 l 0.139527,-0.36432 c 0.178205,-0.46439 -6.046889,-10.05868 -6.598564,-10.16992 -0.36862,-0.0743 -5.395802,3.9147 -11.880412,9.42681 l -2.315104,1.96784 v 8.69818 8.69766 l -16.602604,-0.0641 -16.602604,-0.0641 16.338021,-0.0703 16.33802,-0.0703 V 136.88674 128.31 l 7.395415,-6.10557 c 4.06735,-3.35809 7.434647,-6.10557 7.482747,-6.10557 0.04813,0 4.36987,6.60258 9.604065,14.67249 l 9.516734,14.67249 16.88682,0.0119 16.88631,0.0119 -0.0853,-0.38551 c -0.0471,-0.2122 -7.58677,-10.04876 -16.75453,-21.85861 -9.16776,-11.8099 -16.75998,-21.63035 -16.87132,-21.82296 l -0.20206,-0.35037 15.28331,-12.469004 15.28382,-12.469523 0.0848,-0.511596 0.0847,-0.511597 H 121.77345 103.95438 L 89.542338,88.317607 75.129781,101.54626 74.997489,88.383752 74.865198,75.220732 58.593323,75.085339 42.321448,74.949947 58.924052,74.886902 Z m 14.139705,42.898153 c 0.04942,0.0532 1.360543,2.04367 2.913518,4.42351 1.55298,2.37979 2.786418,4.35758 2.740918,4.39508 -0.04551,0.0375 -3.893221,0.13891 -8.549866,0.22531 l -8.466667,0.15709 0.701766,-0.58342 c 5.686193,-4.73094 10.589034,-8.69427 10.660331,-8.61757 z M 31.92725,143.20573 c 0.05176,-0.0518 0.863786,0.19183 1.804541,0.54105 0.940755,0.34922 1.531895,0.6351 1.313615,0.6351 -0.482725,0 -3.250336,-1.04397 -3.118156,-1.17615 z m 3.911906,1.25109 c 0.21828,-0.008 1.170792,0.14498 2.116667,0.34003 0.945845,0.19505 1.362601,0.35475 0.926041,0.35501 -0.820665,5.4e-4 -3.748063,-0.66814 -3.042708,-0.69504 z m 5.258077,0.77618 c 0.239777,7e-4 0.46981,0.0172 0.63252,0.0486 v -5.2e-4 c 0.325425,0.0628 -0.0036,0.11259 -0.731222,0.11059 -0.727595,-0.002 -0.993875,-0.0534 -0.591695,-0.1142 0.20109,-0.0302 0.45062,-0.0451 0.690397,-0.0444 z"
       sodipodi:nodetypes="ssssscccccccccssscccsssscsccccsccccccsscccccccccsccccccccscccsccccccccsscssscccccsssscssscccsscccccssccccscccccssccccccccccccccccsscccccccccssccccccccccccassscccsccccccsssscccccccccsccsccscscssccscssccccscccccccccccccccccsccscccccccccccscccccsccccccccccccccccscssccssssscscccccsccc" />
  </g>
</svg>
