<?xml version="1.0" encoding="UTF-8" standalone="no"?>
<!-- Created with Inkscape (http://www.inkscape.org/) -->

<svg
   width="210mm"
   height="297mm"
   viewBox="0 0 210 297"
   version="1.1"
   id="svg5"
   inkscape:version="1.2.1 (9c6d41e410, 2022-07-14)"
   sodipodi:docname="dessinligne.svg"
   xmlns:inkscape="http://www.inkscape.org/namespaces/inkscape"
   xmlns:sodipodi="http://sodipodi.sourceforge.net/DTD/sodipodi-0.dtd"
   xmlns="http://www.w3.org/2000/svg"
   xmlns:svg="http://www.w3.org/2000/svg">
  <sodipodi:namedview
     id="namedview7"
     pagecolor="#ffffff"
     bordercolor="#969696"
     borderopacity="1"
     inkscape:showpageshadow="true"
     inkscape:pageopacity="0"
     inkscape:pagecheckerboard="false"
     inkscape:deskcolor="#ffffff"
     inkscape:document-units="mm"
     showgrid="false"
     inkscape:zoom="0.70710678"
     inkscape:cx="433.45646"
     inkscape:cy="330.92597"
     inkscape:window-width="1366"
     inkscape:window-height="705"
     inkscape:window-x="-8"
     inkscape:window-y="-8"
     inkscape:window-maximized="1"
     inkscape:current-layer="layer1"
     showguides="false"
     borderlayer="true"
     showborder="true" />
  <defs
     id="defs2">
    <linearGradient
       id="linearGradient20624">
      <stop
         style="stop-color:#ffb700;stop-opacity:1;"
         offset="0"
         id="stop21423" />
      <stop
         style="stop-color:#ffb700;stop-opacity:0;"
         offset="1"
         id="stop21425" />
    </linearGradient>
    <linearGradient
       id="linearGradient20624-1">
      <stop
         style="stop-color:#ffb700;stop-opacity:1;"
         offset="0"
         id="stop20620" />
      <stop
         style="stop-color:#ffb700;stop-opacity:0;"
         offset="1"
         id="stop20622" />
    </linearGradient>
  </defs>
  <g
     inkscape:label="Calque 1"
     inkscape:groupmode="layer"
     id="layer1">
    <path
       style="fill:#000000;stroke-width:0.264583"
       d="m 105.22594,187.60255 90.15638,-0.0669 0.0669,-86.98139 0.067,-86.981392 0.0657,87.114062 0.0658,87.11407 -90.28907,-0.0658 -90.289059,-0.0658 z M 42.057071,146.24538 c -3.32873,-0.26085 -7.43373,-1.09427 -9.62286,-1.95369 -0.92694,-0.36391 -2.26011,-1.03047 -2.96259,-1.48125 -0.70249,-0.45079 -1.69608,-1.2832 -2.20798,-1.84982 -1.04343,-1.15495 -2.06344,-3.03306 -2.50974,-4.62109 -0.16359,-0.58208 -0.41423,-2.48708 -0.55698,-4.23333 -0.14275,-1.74625 -0.37374,-10.0211 -0.51331,-18.38854 l -0.25378,-15.213553 0.24343,-10.318749 c 0.13389,-5.67531 0.36827,-12.04516 0.52085,-14.15521 0.30042,-4.15441 1.11869,-10.585748 1.7505,-13.758332 0.57782,-2.901498 1.61108,-5.929265 2.84419,-8.334375 l 1.08523,-2.116667 2.12277,-2.145011 2.12277,-2.145012 2.24895,-1.097679 c 1.23693,-0.603726 3.20146,-1.351664 4.36563,-1.662089 l 2.11667,-0.564406 13.09687,-0.195834 c 7.20328,-0.107707 32.86125,-0.239983 57.017719,-0.293942 l 43.92083,-0.09811 0.19138,42.979797 c 0.10527,23.638892 0.12513,43.046082 0.0442,43.127092 -0.081,0.081 -5.96579,0.20681 -13.07735,0.27958 l -12.93011,0.13229 6.86994,8.8538 c 3.77846,4.86959 6.82879,8.97725 6.77851,9.12812 l -0.0914,0.27433 -18.11769,0.0679 -18.11769,0.068 -5.93737,-9.16013 -5.937359,-9.16011 -2.35575,0.16247 c -1.29567,0.0894 -5.84822,0.16248 -10.1168,0.16248 h -7.76104 l -0.0697,8.92969 -0.0697,8.92969 -15.74271,0.0295 c -8.65849,0.0163 -16.93334,-0.0638 -18.38854,-0.17783 z m 33.46979,-9.21108 v -8.69793 l 2.31511,-1.96792 c 6.48464,-5.51216 11.51174,-9.501 11.88036,-9.42668 0.55168,0.11124 6.77658,9.70569 6.59837,10.17008 l -0.13973,0.36414 h -9.3854 c -5.16197,0 -9.44059,0.0893 -9.50806,0.19844 -0.0675,0.10914 4.36059,0.15646 9.84012,0.10516 l 9.96277,-0.0933 5.820839,9.00952 5.82083,9.00952 17.56966,0.0134 17.56965,0.0134 -0.39565,-0.46302 c -0.21761,-0.25466 -3.07053,-3.91584 -6.33984,-8.13594 -12.44476,-16.06401 -26.28676,-33.90633 -27.05057,-34.86816 l -0.7953,-1.00149 0.77936,-0.76081 c 0.42865,-0.41845 7.66216,-6.367393 16.07448,-13.219872 l 15.29511,-12.45894 h -18.7882 -18.7882 l -1.69946,1.52136 c -0.9347,0.83674 -7.075329,6.46244 -13.645829,12.50156 -6.57051,6.039109 -12.18129,11.018249 -12.4684,11.064749 l -0.52202,0.0846 V 87.410008 74.823898 l -16.60261,0.0631 -16.6026,0.0631 16.27187,0.13535 16.27188,0.13535 0.13229,13.16283 0.1323,13.162822 14.41219,-13.228972 14.412199,-13.22898 h 17.81923 17.81923 l -0.0846,0.5116 -0.0846,0.5116 -15.28368,12.46935 -15.28367,12.469342 0.20242,0.35019 c 0.11134,0.19261 7.70337,10.01288 16.87118,21.82283 9.16781,11.80995 16.70725,21.64625 16.7543,21.85845 l 0.0855,0.38581 -16.88659,-0.0118 -16.88658,-0.0118 -9.516749,-14.67258 c -5.23422,-8.06991 -9.55614,-14.67256 -9.60427,-14.67256 -0.0481,0 -3.41536,2.74753 -7.48273,6.10562 l -7.39522,6.10563 v 8.57673 8.57673 l -16.33802,0.0702 -16.33802,0.0702 16.6026,0.0641 16.60261,0.0641 z m -33.79689,8.24711 c -0.32542,-0.0628 -0.92073,-0.0644 -1.32291,-0.004 -0.40218,0.0608 -0.13593,0.1122 0.59167,0.11418 0.72761,0.002 1.05667,-0.0478 0.73124,-0.11057 z m -3.77395,-0.48482 c -0.94588,-0.19505 -1.89838,-0.34784 -2.11666,-0.33952 -0.70536,0.0269 2.22204,0.69522 3.04271,0.69468 0.43656,-2.6e-4 0.0198,-0.16011 -0.92605,-0.35516 z m 36.51251,-8.44073 v -8.58263 l 7.56397,-6.24894 c 4.17886,-3.45236 7.74889,-6.21267 7.97718,-6.16789 0.22727,0.0446 4.71137,6.71222 9.96468,14.81698 l 9.551459,14.73594 16.07344,0.0146 c 8.84039,0.008 16.07344,-0.0313 16.07344,-0.0873 0,-0.0561 -7.56047,-9.84549 -16.80104,-21.75429 -9.24058,-11.90879 -16.79405,-21.83441 -16.78551,-22.05692 0.009,-0.22251 6.34863,-5.557443 14.08907,-11.855382 7.74043,-6.29794 14.54977,-11.85964 15.13185,-12.35933 l 1.05834,-0.90853 -17.08206,-0.01 -17.08206,-0.01 -14.535649,13.35619 c -7.99461,7.345899 -14.68448,13.358562 -14.86638,13.361462 l -0.33073,0.005 V 89.266618 75.928598 l -16.7349,-0.12282 -16.7349,-0.12281 -2.94697,-0.5522 c -1.62083,-0.30371 -3.70443,-0.80917 -4.63021,-1.12326 -0.92578,-0.31408 -2.30356,-0.91985 -3.06174,-1.34617 -0.75818,-0.42631 -1.96061,-1.36957 -2.67206,-2.09613 l -1.29356,-1.32101 -0.167,2.19429 c -0.0918,1.20686 -0.30891,4.45647 -0.48236,7.22137 l -0.31537,5.02708 0.0192,17.727092 c 0.0105,9.7499 0.1492,21.0013 0.30812,25.00313 l 0.28896,7.27604 0.41043,1.71621 c 0.22574,0.94391 0.6945,2.20092 1.04168,2.79334 0.34718,0.59243 1.16544,1.56955 1.81836,2.17138 0.65291,0.60183 1.89767,1.45293 2.76613,1.89133 0.86847,0.4384 2.45604,1.02636 3.52794,1.30657 1.87226,0.48945 5.39883,1.02156 7.90203,1.1923 0.65484,0.0447 7.88789,0.10201 16.07344,0.12743 l 14.88281,0.0462 z m -40.73652,7.39095 c -0.94076,-0.34922 -1.75283,-0.59259 -1.80459,-0.54083 -0.13218,0.13218 2.63546,1.17577 3.11819,1.17577 0.21828,0 -0.37284,-0.28572 -1.3136,-0.63494 z m -3.34626,-1.56652 c -0.74003,-0.49836 -1.8358,-1.46312 -2.43504,-2.1439 -0.59925,-0.68077 -1.32889,-1.8775 -1.62144,-2.65939 -0.29254,-0.78189 -0.64958,-2.16862 -0.79343,-3.08163 -0.14385,-0.913 -0.39981,-6.66063 -0.5688,-12.77251 l -0.30726,-11.1125 0.15843,-15.742713 c 0.14297,-14.205969 0.27261,-17.937139 0.8573,-24.672389 l 0.17801,-2.05053 h 0.47717 c 0.26245,0 0.54556,0.21547 0.62915,0.47883 0.20219,0.63703 2.16537,2.61532 3.32327,3.34883 1.07549,0.6813 4.29263,2.00215 4.80762,1.97384 0.19347,-0.0106 -0.24356,-0.23151 -0.97116,-0.49086 -2.02187,-0.72066 -3.85251,-1.72374 -5.08212,-2.78469 -0.65533,-0.56544 -1.46003,-1.66483 -1.95602,-2.67233 l -0.84266,-1.71167 0.17582,-2.108137 c 0.0967,-1.159476 0.52701,-3.509616 0.95626,-5.222536 l 0.78046,-3.114398 1.32626,-2.682451 1.32626,-2.682452 1.65787,-1.705001 c 1.65626,-1.703348 3.77759,-3.119342 6.02349,-4.020691 0.65484,-0.26281 2.26219,-0.713266 3.57188,-1.001019 l 2.38125,-0.523182 55.562499,-0.213434 c 30.55938,-0.117387 55.63291,-0.170971 55.71897,-0.11907 0.0861,0.0519 0.24218,18.929117 0.34693,41.949371 l 0.19045,41.855022 -0.34692,0.22001 c -0.19081,0.121 -6.03216,0.22183 -12.98078,0.22406 l -12.63385,0.004 v 0.30666 0.30666 l 5.59891,-0.17437 c 3.0794,-0.0959 8.97299,-0.17436 13.09687,-0.17436 h 7.49796 l -2.2e-4,-25.59845 c -1.3e-4,-14.079142 -0.0793,-33.199782 -0.17596,-42.490306 l -0.17574,-16.891821 -54.39435,0.17299 c -31.770749,0.101042 -55.435959,0.279501 -56.898699,0.429072 -1.37739,0.140843 -3.22286,0.439129 -4.10104,0.662856 -0.87819,0.223726 -2.60204,0.889764 -3.8308,1.480079 l -2.23409,1.073303 -2.14391,2.15043 -2.14392,2.150428 -1.22742,2.513541 c -0.67508,1.382448 -1.46934,3.34698 -1.76501,4.365625 -0.65841,2.268369 -1.73925,8.551141 -2.11652,12.303121 -0.15364,1.52797 -0.43063,4.86172 -0.61552,7.40834 l -0.33618,4.63021 0.0264,20.769792 c 0.0146,11.44872 0.16017,23.3227 0.32446,26.45834 0.16393,3.12869 0.46131,6.28385 0.66085,7.01145 0.4772,1.74011 1.30574,3.33004 2.36335,4.53511 0.83968,0.95677 3.24741,2.70096 3.76515,2.72754 0.14358,0.007 -0.34442,-0.39436 -1.08445,-0.89272 z m 64.93532,-15.63955 c 0.0455,-0.0375 -1.18788,-2.01523 -2.74087,-4.39507 -1.55298,-2.37984 -2.86404,-4.37048 -2.91346,-4.42365 -0.0713,-0.0767 -4.97423,3.88672 -10.66045,8.61766 l -0.7013,0.58348 8.46666,-0.15717 c 4.65667,-0.0864 8.50391,-0.1878 8.54942,-0.22525 z m 55.942769,-0.38625 4.16719,-10e-4 V 93.917127 c 0,-17.729759 -0.0792,-36.381135 -0.17591,-41.447493 l -0.1759,-9.211561 -54.51538,0.19381 -54.515379,0.19381 -2.39257,0.362932 c -4.52364,0.686196 -7.82209,2.232604 -10.46237,4.90506 l -1.71979,1.740754 -1.10327,2.096709 c -0.6068,1.153189 -1.35319,2.843792 -1.65866,3.75689 -0.61976,1.852605 -1.23858,4.627708 -1.59856,7.168703 l -0.23873,1.685137 0.55158,1.47422 0.55158,1.47423 1.25188,1.25188 c 1.3672,1.3672 3.54537,2.57736 5.81623,3.23143 0.80046,0.23055 2.5864,0.62252 3.96875,0.87105 l 2.51337,0.45185 17.33021,0.15524 17.33021,0.15525 0.13229,12.24649 0.13229,12.246489 13.36146,-12.298449 13.361459,-12.29845 19.66472,-0.0142 19.66471,-0.0142 -0.0855,0.38071 c -0.0471,0.2094 -7.25906,6.23142 -16.02669,13.38228 -8.76763,7.150859 -15.94114,13.105982 -15.94114,13.233592 0,0.12762 4.36383,5.85205 9.6974,12.72096 l 9.69741,12.48893 8.62499,-0.17265 c 4.74374,-0.095 10.50022,-0.17329 12.79217,-0.17407 z M 41.729971,74.637648 c -0.32542,-0.0628 -0.92073,-0.0644 -1.32291,-0.004 -0.40218,0.0608 -0.13593,0.1122 0.59167,0.11419 0.72761,0.002 1.05667,-0.0478 0.73124,-0.11057 z m -2.51717,-0.26072 c -0.25467,-0.0666 -0.67138,-0.0666 -0.92605,0 -0.25466,0.0665 -0.0463,0.121 0.46302,0.121 0.50933,0 0.71769,-0.0545 0.46303,-0.121 z m -2.05053,-0.34678 c -0.3638,-0.11651 -0.89958,-0.21183 -1.19062,-0.21183 h -0.52917 l 0.66146,0.21183 c 0.3638,0.11651 0.89958,0.21184 1.19063,0.21184 h 0.52916 z M 15.201861,13.837442 c 0,-0.07276 0.0595,-0.132292 0.13229,-0.132292 0.0728,0 0.13229,0.05953 0.13229,0.132292 0,0.07276 -0.0595,0.132291 -0.13229,0.132291 -0.0728,0 -0.13229,-0.05953 -0.13229,-0.132291 z"
       id="path79011" />
  </g>
</svg>
