<svg width="418" height="333" viewBox="0 0 418 333" fill="none" xmlns="http://www.w3.org/2000/svg">
<path d="M95.646 20.456C36.4719 20.6893 38.2748 78.5315 37.7375 141.315C37.2 204.112 35.9397 265.912 95.1084 265.912L369.319 263.166L368.559 19.4433L95.646 20.456Z" fill="url(#paint0_linear_10_9)"/>
<g filter="url(#filter0_f_10_9)">
<path d="M49.1632 120.182C46.722 175.758 48.8816 253.853 49.2976 267.193C49.3006 267.287 49.2948 267.385 49.2976 267.48H176.848V264.586L213.526 230.124L234.855 267.48H317.095L261.96 186.53L333.352 120.182H240.397L176.848 186.666V120.182H49.1632Z" fill="#8D0000"/>
</g>
<path d="M39.4228 85.6739C32.9247 133.963 36.1862 252.503 36.71 269.227C37.3762 290.495 35.8061 316.637 93.2478 316.966C93.6124 316.968 93.9694 316.966 94.3393 316.966H159.064H164.253V266.62L200.931 232.158L249.365 316.966H336.828L249.365 188.564L330.161 113.476H236.148L164.253 188.7V113.476H95.9514C53.8954 113.476 42.3793 101.39 39.4228 85.6739Z" fill="url(#paint1_linear_10_9)"/>
<defs>
<filter id="filter0_f_10_9" x="46.1194" y="118.282" width="289.132" height="151.096" filterUnits="userSpaceOnUse" color-interpolation-filters="sRGB">
<feFlood flood-opacity="0" result="BackgroundImageFix"/>
<feBlend mode="normal" in="SourceGraphic" in2="BackgroundImageFix" result="shape"/>
<feGaussianBlur stdDeviation="0.949665" result="effect1_foregroundBlur_10_9"/>
</filter>
<linearGradient id="paint0_linear_10_9" x1="37.6152" y1="141.314" x2="249.973" y2="136.232" gradientUnits="userSpaceOnUse">
<stop stop-color="#8D0000"/>
<stop offset="1" stop-color="#FF6200"/>
</linearGradient>
<linearGradient id="paint1_linear_10_9" x1="36.855" y1="201.32" x2="103.505" y2="201.32" gradientUnits="userSpaceOnUse">
<stop offset="0.267187" stop-color="#F4E868"/>
<stop offset="0.743768" stop-color="#CC980C"/>
</linearGradient>
</defs>
</svg>
