<svg width="794" height="731" viewBox="0 0 794 731" fill="none" xmlns="http://www.w3.org/2000/svg">
<path d="M156.819 141.887C68.42 142.193 71.1134 218.051 70.3107 300.389C69.5077 382.745 67.625 463.794 156.016 463.794L565.652 460.192L564.516 140.559L156.819 141.887Z" fill="url(#paint0_linear_4_31)"/>
<g filter="url(#filter0_f_4_31)">
<path d="M87.3795 272.674C83.7325 345.56 86.957 447.979 87.5784 465.474C87.5828 465.589 87.5741 465.742 87.5784 465.857H278.123V462.063L332.916 416.867L364.778 465.857H487.634L405.27 359.695L511.92 272.682H373.057L278.123 359.873V272.682L87.3795 272.674Z" fill="#8D0000"/>
</g>
<path d="M72.8279 230.739C63.1206 294.068 67.9928 449.528 68.7754 471.462C69.7706 499.354 67.425 533.637 153.236 534.069C153.78 534.072 154.314 534.069 154.866 534.069H251.556H259.308V468.043L314.101 422.847L386.455 534.069H517.114L386.455 365.675L507.154 267.2H366.711L259.308 365.853V267.2H157.275C94.4481 267.2 77.2446 251.35 72.8279 230.739V230.739Z" fill="url(#paint1_linear_4_31)"/>
<path d="M571.621 506.848C571.621 512.77 570.499 517.808 568.254 521.962C566.027 526.116 562.986 529.289 559.133 531.481C555.297 533.655 550.984 534.742 546.193 534.742C541.367 534.742 537.037 533.646 533.201 531.455C529.365 529.263 526.333 526.09 524.106 521.936C521.879 517.782 520.765 512.752 520.765 506.848C520.765 500.927 521.879 495.889 524.106 491.735C526.333 487.581 529.365 484.417 533.201 482.242C537.037 480.05 541.367 478.954 546.193 478.954C550.984 478.954 555.297 480.05 559.133 482.242C562.986 484.417 566.027 487.581 568.254 491.735C570.499 495.889 571.621 500.927 571.621 506.848ZM559.981 506.848C559.981 503.013 559.407 499.778 558.258 497.144C557.126 494.51 555.527 492.513 553.458 491.151C551.39 489.79 548.969 489.11 546.193 489.11C543.418 489.11 540.996 489.79 538.928 491.151C536.86 492.513 535.251 494.51 534.102 497.144C532.971 499.778 532.405 503.013 532.405 506.848C532.405 510.684 532.971 513.919 534.102 516.553C535.251 519.187 536.86 521.184 538.928 522.545C540.996 523.907 543.418 524.587 546.193 524.587C548.969 524.587 551.39 523.907 553.458 522.545C555.527 521.184 557.126 519.187 558.258 516.553C559.407 513.919 559.981 510.684 559.981 506.848ZM625.547 479.697V534H615.63L592.005 499.822H591.607V534H580.126V479.697H590.202L613.641 513.848H614.119V479.697H625.547ZM635.032 534V479.697H671.623V489.163H646.514V502.102H669.741V511.568H646.514V524.534H671.73V534H635.032Z" fill="#8D0000"/>
<path d="M100.045 567.818H108.455L128.227 616.114H128.909L148.682 567.818H157.091V626H150.5V581.795H149.932L131.75 626H125.386L107.205 581.795H106.636V626H100.045V567.818Z" stroke="black" stroke-width="5"/>
<path d="M173.604 626H166.217L187.581 567.818H194.854L216.217 626H208.831L191.445 577.023H190.99L173.604 626ZM176.331 603.273H206.104V609.523H176.331V603.273Z" stroke="black" stroke-width="5"/>
<path d="M225.28 567.818H233.689L253.462 616.114H254.143L273.916 567.818H282.325V626H275.734V581.795H275.166L256.984 626H250.621L232.439 581.795H231.871V626H225.28V567.818Z" stroke="black" stroke-width="5"/>
<path d="M345.543 596.909C345.543 603.045 344.435 608.348 342.219 612.818C340.003 617.288 336.963 620.735 333.099 623.159C329.236 625.583 324.823 626.795 319.861 626.795C314.899 626.795 310.486 625.583 306.622 623.159C302.759 620.735 299.719 617.288 297.503 612.818C295.287 608.348 294.179 603.045 294.179 596.909C294.179 590.773 295.287 585.47 297.503 581C299.719 576.53 302.759 573.083 306.622 570.659C310.486 568.235 314.899 567.023 319.861 567.023C324.823 567.023 329.236 568.235 333.099 570.659C336.963 573.083 340.003 576.53 342.219 581C344.435 585.47 345.543 590.773 345.543 596.909ZM338.724 596.909C338.724 591.871 337.882 587.619 336.196 584.153C334.529 580.688 332.266 578.064 329.406 576.284C326.565 574.504 323.384 573.614 319.861 573.614C316.338 573.614 313.147 574.504 310.287 576.284C307.446 578.064 305.183 580.688 303.497 584.153C301.83 587.619 300.997 591.871 300.997 596.909C300.997 601.947 301.83 606.199 303.497 609.665C305.183 613.131 307.446 615.754 310.287 617.534C313.147 619.314 316.338 620.205 319.861 620.205C323.384 620.205 326.565 619.314 329.406 617.534C332.266 615.754 334.529 613.131 336.196 609.665C337.882 606.199 338.724 601.947 338.724 596.909Z" stroke="black" stroke-width="5"/>
<path d="M395.571 567.818H402.617V606.341C402.617 610.318 401.679 613.869 399.804 616.994C397.948 620.1 395.325 622.553 391.935 624.352C388.545 626.133 384.567 627.023 380.003 627.023C375.438 627.023 371.461 626.133 368.071 624.352C364.681 622.553 362.048 620.1 360.173 616.994C358.317 613.869 357.389 610.318 357.389 606.341V567.818H364.435V605.773C364.435 608.614 365.06 611.142 366.31 613.358C367.56 615.555 369.34 617.288 371.651 618.557C373.98 619.807 376.764 620.432 380.003 620.432C383.241 620.432 386.026 619.807 388.355 618.557C390.685 617.288 392.465 615.555 393.696 613.358C394.946 611.142 395.571 608.614 395.571 605.773V567.818Z" stroke="black" stroke-width="5"/>
<path d="M434.641 626H416.686V567.818H435.436C441.08 567.818 445.91 568.983 449.925 571.313C453.94 573.623 457.018 576.947 459.158 581.284C461.298 585.602 462.368 590.773 462.368 596.795C462.368 602.856 461.288 608.074 459.129 612.449C456.97 616.805 453.826 620.157 449.697 622.506C445.569 624.835 440.55 626 434.641 626ZM423.732 619.75H434.186C438.997 619.75 442.983 618.822 446.146 616.966C449.309 615.11 451.667 612.468 453.22 609.04C454.773 605.612 455.55 601.53 455.55 596.795C455.55 592.098 454.783 588.055 453.249 584.665C451.714 581.256 449.423 578.642 446.374 576.824C443.324 574.987 439.527 574.068 434.982 574.068H423.732V619.75Z" stroke="black" stroke-width="5"/>
<path d="M523.277 596.909C523.277 603.045 522.169 608.348 519.953 612.818C517.737 617.288 514.697 620.735 510.834 623.159C506.97 625.583 502.557 626.795 497.595 626.795C492.633 626.795 488.22 625.583 484.357 623.159C480.493 620.735 477.453 617.288 475.237 612.818C473.021 608.348 471.913 603.045 471.913 596.909C471.913 590.773 473.021 585.47 475.237 581C477.453 576.53 480.493 573.083 484.357 570.659C488.22 568.235 492.633 567.023 497.595 567.023C502.557 567.023 506.97 568.235 510.834 570.659C514.697 573.083 517.737 576.53 519.953 581C522.169 585.47 523.277 590.773 523.277 596.909ZM516.459 596.909C516.459 591.871 515.616 587.619 513.93 584.153C512.264 580.688 510 578.064 507.141 576.284C504.3 574.504 501.118 573.614 497.595 573.614C494.072 573.614 490.881 574.504 488.021 576.284C485.18 578.064 482.917 580.688 481.232 584.153C479.565 587.619 478.732 591.871 478.732 596.909C478.732 601.947 479.565 606.199 481.232 609.665C482.917 613.131 485.18 615.754 488.021 617.534C490.881 619.314 494.072 620.205 497.595 620.205C501.118 620.205 504.3 619.314 507.141 617.534C510 615.754 512.264 613.131 513.93 609.665C515.616 606.199 516.459 601.947 516.459 596.909Z" stroke="black" stroke-width="5"/>
<path d="M573.305 567.818H580.351V606.341C580.351 610.318 579.413 613.869 577.538 616.994C575.682 620.1 573.059 622.553 569.669 624.352C566.279 626.133 562.302 627.023 557.737 627.023C553.173 627.023 549.196 626.133 545.805 624.352C542.415 622.553 539.783 620.1 537.908 616.994C536.052 613.869 535.124 610.318 535.124 606.341V567.818H542.169V605.773C542.169 608.614 542.794 611.142 544.044 613.358C545.294 615.555 547.074 617.288 549.385 618.557C551.715 619.807 554.499 620.432 557.737 620.432C560.976 620.432 563.76 619.807 566.089 618.557C568.419 617.288 570.199 615.555 571.43 613.358C572.68 611.142 573.305 608.614 573.305 605.773V567.818Z" stroke="black" stroke-width="5"/>
<defs>
<filter id="filter0_f_4_31" x="64.016" y="251.021" width="469.557" height="236.49" filterUnits="userSpaceOnUse" color-interpolation-filters="sRGB">
<feFlood flood-opacity="0" result="BackgroundImageFix"/>
<feBlend mode="normal" in="SourceGraphic" in2="BackgroundImageFix" result="shape"/>
<feGaussianBlur stdDeviation="10.8266" result="effect1_foregroundBlur_4_31"/>
</filter>
<linearGradient id="paint0_linear_4_31" x1="70.1278" y1="302.177" x2="371.904" y2="239.951" gradientUnits="userSpaceOnUse">
<stop stop-color="#370000"/>
<stop offset="1" stop-color="#FF4600"/>
</linearGradient>
<linearGradient id="paint1_linear_4_31" x1="68.992" y1="382.404" x2="168.559" y2="382.404" gradientUnits="userSpaceOnUse">
<stop offset="0.267187" stop-color="#F4E868"/>
<stop offset="0.743768" stop-color="#CC980C"/>
</linearGradient>
</defs>
</svg>
