<svg width="1196" height="759" viewBox="0 0 1196 759" fill="none" xmlns="http://www.w3.org/2000/svg">
<rect width="1196" height="759" fill="#F5F5F5"/>
<rect width="1196" height="759" fill="white"/>
<g clip-path="url(#clip0_0_1)">
<path d="M716.759 538.677C721.865 540.472 727.347 540.922 732.678 539.983C738.009 539.044 743.007 536.748 747.193 533.316C757.853 524.369 761.195 509.629 763.914 495.98L771.958 455.61L755.118 467.205C743.008 475.544 730.625 484.149 722.24 496.228C713.855 508.306 710.195 524.793 716.932 537.862" fill="#7C6A0A"/>
<path d="M718.198 587.554C716.494 575.139 714.741 562.564 715.937 550.016C716.998 538.872 720.398 527.987 727.32 519.063C730.994 514.334 735.465 510.283 740.531 507.091C741.852 506.257 743.068 508.351 741.753 509.181C732.987 514.721 726.206 522.902 722.39 532.544C718.174 543.267 717.497 554.955 718.223 566.345C718.663 573.233 719.594 580.076 720.532 586.91C720.606 587.219 720.56 587.545 720.403 587.821C720.246 588.098 719.99 588.304 719.687 588.399C719.377 588.482 719.047 588.44 718.769 588.282C718.49 588.124 718.285 587.862 718.198 587.554V587.554Z" fill="#F9A826"/>
<path d="M734.615 565.585C736.805 568.913 739.815 571.622 743.356 573.449C746.896 575.277 750.848 576.161 754.83 576.018C765.063 575.533 773.594 568.39 781.274 561.61L803.988 541.554L788.955 540.835C778.144 540.317 767.054 539.835 756.756 543.169C746.459 546.503 736.962 554.527 735.079 565.185" fill="#7C6A0A"/>
<path d="M713.381 594.69C721.585 580.175 731.1 564.042 748.103 558.886C752.83 557.457 757.788 556.945 762.707 557.378C764.258 557.512 763.871 559.902 762.323 559.768C754.076 559.084 745.846 561.261 739.016 565.934C732.445 570.407 727.328 576.626 722.998 583.221C720.345 587.26 717.969 591.471 715.592 595.676C714.833 597.02 712.613 596.05 713.381 594.69V594.69Z" fill="#F9A826"/>
<path d="M511.188 492.714C501.124 496.252 490.319 497.138 479.813 495.287C469.307 493.436 459.455 488.911 451.206 482.148C430.197 464.514 423.61 435.464 418.25 408.564C412.966 382.043 407.682 355.521 402.398 329L435.587 351.853C459.454 368.287 483.859 385.248 500.385 409.052C516.911 432.856 524.124 465.351 510.846 491.109" fill="#7C6A0A"/>
<path d="M508.351 589.043C511.71 564.574 515.164 539.792 512.808 515.061C510.715 493.098 504.014 471.646 490.373 454.057C483.132 444.738 474.321 436.754 464.336 430.463C461.732 428.819 459.336 432.946 461.928 434.582C479.205 445.501 492.567 461.624 500.09 480.627C508.398 501.759 509.732 524.795 508.301 547.243C507.435 560.819 505.6 574.305 503.751 587.774C503.605 588.384 503.696 589.025 504.005 589.57C504.314 590.115 504.819 590.522 505.417 590.709C506.027 590.873 506.677 590.79 507.226 590.478C507.775 590.166 508.179 589.651 508.351 589.043V589.043Z" fill="#F9A826"/>
<path d="M475.996 545.745C471.68 552.305 465.747 557.643 458.769 561.245C451.791 564.846 444.003 566.59 436.155 566.308C415.987 565.351 399.173 551.275 384.038 537.911L339.27 498.384L368.899 496.967C390.206 495.947 412.063 494.996 432.358 501.567C452.652 508.137 471.369 523.951 475.08 544.957" fill="#7C6A0A"/>
<path d="M517.844 603.108C501.676 574.5 482.922 542.705 449.412 532.542C440.095 529.726 430.325 528.718 420.629 529.57C417.573 529.834 418.336 534.545 421.387 534.282C437.64 532.932 453.861 537.224 467.32 546.434C480.272 555.25 490.356 567.506 498.891 580.503C504.119 588.464 508.802 596.763 513.486 605.051C514.983 607.7 519.358 605.788 517.844 603.108V603.108Z" fill="#F9A826"/>
<path d="M393.053 215.794L253.845 186.628L252.036 186.25C251.115 186.056 250.157 186.125 249.274 186.451C248.39 186.776 247.617 187.345 247.042 188.091C246.467 188.836 246.114 189.729 246.024 190.666C245.934 191.604 246.11 192.547 246.533 193.389L302.399 305.161C302.761 305.879 303.289 306.499 303.941 306.971C304.592 307.442 305.348 307.749 306.143 307.868C306.94 307.987 307.755 307.91 308.517 307.644C309.278 307.378 309.963 306.93 310.513 306.34L348.614 265.685C348.885 265.389 349.214 265.151 349.581 264.988C349.949 264.826 350.345 264.74 350.747 264.738C351.293 264.727 351.832 264.865 352.305 265.137C352.779 265.408 353.17 265.804 353.436 266.28L361.376 280.76C361.883 281.725 362.698 282.493 363.692 282.942C364.686 283.39 365.802 283.493 366.862 283.234L366.901 283.226C367.973 282.992 368.936 282.404 369.634 281.557C370.332 280.71 370.725 279.653 370.75 278.555L372.124 245.015C372.14 244.596 372.242 244.186 372.424 243.808C372.619 243.435 372.885 243.102 373.206 242.83L395.218 224.542C395.941 223.94 396.481 223.148 396.775 222.254C397.068 221.36 397.104 220.402 396.878 219.489C396.652 218.576 396.174 217.745 395.497 217.091C394.821 216.438 393.974 215.988 393.053 215.794V215.794ZM393.946 223.006L371.934 241.294C371.647 241.528 371.388 241.793 371.16 242.085L253.612 189.614C253.508 189.567 253.4 189.53 253.289 189.503C252.836 189.389 252.358 189.437 251.936 189.639C251.515 189.841 251.178 190.183 250.982 190.607C250.787 191.031 250.745 191.51 250.866 191.961C250.986 192.413 251.26 192.807 251.641 193.078L348.453 263.312C347.965 263.569 347.526 263.908 347.153 264.315L309.053 304.97C308.722 305.322 308.312 305.589 307.856 305.748C307.4 305.908 306.912 305.954 306.434 305.885C305.956 305.816 305.502 305.632 305.11 305.349C304.719 305.067 304.401 304.694 304.184 304.262L248.318 192.49C248.068 191.985 247.965 191.42 248.021 190.86C248.077 190.299 248.289 189.765 248.633 189.319C248.977 188.873 249.44 188.533 249.968 188.337C250.496 188.141 251.069 188.097 251.621 188.211L253.473 188.6L392.638 217.755C393.19 217.871 393.699 218.14 394.106 218.532C394.512 218.924 394.8 219.423 394.937 219.97C395.073 220.518 395.052 221.094 394.877 221.63C394.702 222.167 394.379 222.644 393.946 223.006L393.946 223.006Z" fill="#9C26F9"/>
<path d="M371.605 242.282L370.79 244.108L370.278 243.886L370.276 243.876L252.82 191.456L351.061 262.739L351.071 262.737L351.331 262.934L350.161 264.554L348.453 263.312L251.641 193.078C251.26 192.808 250.986 192.413 250.866 191.961C250.745 191.51 250.787 191.031 250.982 190.607C251.178 190.183 251.515 189.84 251.936 189.639C252.358 189.437 252.836 189.389 253.289 189.503C253.4 189.53 253.508 189.567 253.612 189.614L371.16 242.085L371.605 242.282Z" fill="#9C26F9"/>
<path d="M673.84 382.02L678.92 431.69L679.02 432.71L680.53 447.44L692.93 568.72V568.74L695.34 592.27C694.399 593.534 693.566 594.876 692.85 596.28C690.666 600.591 689.598 605.381 689.744 610.212C689.891 615.043 691.248 619.759 693.69 623.93C699.74 622.41 705.706 620.677 711.59 618.73C723.761 614.727 735.631 609.861 747.11 604.17C745.916 597.601 742.485 591.647 737.4 587.32L724.95 437.73L723.86 424.61L720.31 382.02H673.84Z" fill="#FFB8B8"/>
<path d="M709.446 246.737C735.122 221.061 735.122 179.432 709.446 153.756C683.77 128.08 642.141 128.08 616.465 153.756C590.789 179.432 590.789 221.061 616.465 246.737C642.141 272.413 683.77 272.413 709.446 246.737Z" fill="#FFB8B8"/>
<path d="M540.41 471.61C540.42 471.74 540.43 471.87 540.44 471.99C540.658 474.555 541.691 476.983 543.388 478.919C545.085 480.854 547.356 482.197 549.87 482.75L647.99 504.18C648.841 504.366 649.709 504.46 650.58 504.46C653.212 504.459 655.771 503.595 657.864 502C659.958 500.405 661.47 498.167 662.17 495.63C662.38 494.85 662.61 494.05 662.86 493.22V493.21C666.17 481.97 672.08 466.67 680.53 447.44C682.44 443.09 684.483 438.533 686.66 433.77C687.06 432.89 687.47 432 687.87 431.11C692.36 421.36 697.37 410.807 702.9 399.45C705.606 393.899 707.65 388.049 708.99 382.02C712.552 366.105 711.145 349.48 704.96 334.39C703.7 331.318 702.247 328.329 700.61 325.44C694.152 314.055 685.001 304.427 673.958 297.399C662.916 290.372 650.319 286.159 637.27 285.13C635.2 284.96 633.14 284.88 631.07 284.88C610.365 284.971 590.492 293.036 575.58 307.4C566.78 315.932 560.099 326.404 556.07 337.98C555.81 338.71 555.57 339.45 555.33 340.19C551.636 351.902 548.67 363.831 546.45 375.91C545.12 383.08 544.04 390.15 543.17 397.04C540.12 421.772 539.197 446.72 540.41 471.61V471.61Z" fill="#9C26F9"/>
<path d="M497.2 597.25C556.811 631.132 627.202 640.69 693.69 623.93C699.74 622.41 705.706 620.677 711.59 618.73C706.37 601.71 700.139 585.017 692.93 568.74V568.72C680.91 541.77 669.87 525.28 664.49 518C663.605 516.794 663.023 515.394 662.792 513.917C662.56 512.44 662.686 510.928 663.16 509.51L664.83 504.5C665.466 502.604 665.618 500.58 665.274 498.61C664.93 496.641 664.1 494.788 662.86 493.22V493.21C662.75 493.07 662.63 492.93 662.51 492.79C618.8 442.99 542.6 470.16 541.83 470.44L541.45 470.58L541.21 470.91C540.95 471.27 540.69 471.62 540.44 471.99C519.78 500.94 506.05 545.44 497.2 597.25Z" fill="#B60000"/>
<path d="M407.354 276.619C407.683 278.064 407.897 279.532 407.995 281.01L522.988 347.349L550.938 331.258L580.735 370.267L534.022 403.561C530.249 406.25 525.704 407.643 521.071 407.53C516.439 407.418 511.967 405.805 508.329 402.935L389.752 309.388C384.4 311.369 378.573 311.674 373.044 310.262C367.515 308.85 362.547 305.788 358.801 301.484C355.055 297.18 352.708 291.837 352.072 286.166C351.436 280.495 352.542 274.765 355.243 269.739C357.943 264.712 362.11 260.626 367.189 258.025C372.268 255.424 378.018 254.431 383.675 255.178C389.332 255.925 394.628 258.377 398.858 262.207C403.088 266.037 406.051 271.064 407.354 276.619V276.619Z" fill="#FFB8B8"/>
<path d="M524.75 346.33V346.34C525.167 347.846 525.873 349.255 526.83 350.49L546.45 375.91L555.8 388.04L564 398.66C565.057 400.03 566.397 401.157 567.929 401.963C569.46 402.769 571.148 403.235 572.876 403.33C574.604 403.425 576.332 403.146 577.943 402.513C579.554 401.88 581.009 400.906 582.21 399.66L611.99 368.74L624.28 355.97C631.263 350.521 635.8 342.526 636.897 333.737C637.993 324.947 635.56 316.082 630.129 309.085C624.699 302.087 616.716 297.529 607.93 296.409C599.143 295.289 590.272 297.699 583.26 303.11L575.58 307.4L530.49 332.62C528.141 333.937 526.299 336.002 525.259 338.487C524.219 340.971 524.04 343.732 524.75 346.33H524.75Z" fill="#9C26F9"/>
<path d="M654.81 362.27L656.69 422.32L656.7 422.7C656.753 424.431 657.179 426.13 657.948 427.681C658.718 429.233 659.813 430.6 661.159 431.69C662.505 432.779 664.07 433.566 665.748 433.995C667.425 434.425 669.176 434.488 670.88 434.18L679.02 432.71L681.1 432.33H681.11L687.87 431.11L723.86 424.61L730.75 423.37C732.453 423.06 734.069 422.388 735.488 421.398C736.908 420.409 738.098 419.125 738.977 417.635C739.857 416.144 740.405 414.482 740.585 412.761C740.765 411.04 740.572 409.3 740.02 407.66L720.61 350.19C718.987 341.484 713.978 333.778 706.682 328.76C699.385 323.741 690.396 321.821 681.686 323.42C672.976 325.019 665.256 330.007 660.218 337.29C655.18 344.572 653.235 353.556 654.81 362.27V362.27Z" fill="#F9A826"/>
<path d="M652.549 185.124C635.651 196.69 613.463 208.578 596.203 196.262C584.871 188.175 581.3 173.199 585.896 160.057C594.16 136.424 616.866 126.02 638.579 118.044C666.805 107.677 697.539 99.4285 726.678 106.853C755.818 114.278 781.57 142.491 776.31 172.097C772.08 195.906 749.621 215.717 752.809 239.688C756.018 263.813 783.149 276.511 807.101 280.823C831.053 285.134 857.856 286.52 875.069 303.724C897.028 325.672 891.545 364.9 870.882 388.072C850.22 411.244 819.039 421.748 788.825 428.888C748.793 438.349 705.496 443.321 667.476 427.62C629.455 411.919 599.869 369.654 610.882 330.021C615.535 313.28 626.494 299.132 637.085 285.358C647.677 271.584 658.402 257.181 662.442 240.282C665.809 226.2 663.317 209.849 653.978 199.286C652.28 197.437 651.211 195.097 650.925 192.603C650.639 190.108 651.151 187.588 652.387 185.402L652.549 185.124Z" fill="url(#paint0_linear_0_1)"/>
</g>
<defs>
<linearGradient id="paint0_linear_0_1" x1="736.555" y1="104" x2="736.555" y2="437.74" gradientUnits="userSpaceOnUse">
<stop stop-color="#7C6A0A"/>
<stop offset="1" stop-color="#F9A826"/>
</linearGradient>
<clipPath id="clip0_0_1">
<rect width="643.162" height="528" fill="white" transform="translate(246 104)"/>
</clipPath>
</defs>
</svg>
