<svg width="1196" height="759" viewBox="0 0 1196 759" fill="none" xmlns="http://www.w3.org/2000/svg">
<rect width="1196" height="759" fill="#F5F5F5"/>
<rect width="1196" height="759" fill="white"/>
<g clip-path="url(#clip0_0_1)">
<path d="M640.401 623.354L641.814 624.976C658.145 643.922 667.891 661.508 670.894 677.503C670.942 677.735 670.975 677.967 671.022 678.199L669.977 678.404L668.971 678.588C665.906 661.15 654.496 643.123 640.256 626.594C639.802 626.057 639.341 625.512 638.865 624.981C632.777 618.039 626.232 611.379 619.613 605.152C619.105 604.665 618.582 604.178 618.059 603.691C609.283 595.518 600.453 588.125 592.578 581.892C592.024 581.449 591.461 581.014 590.906 580.586C577.536 570.094 567.162 563.139 564.849 561.615C564.571 561.424 564.413 561.323 564.377 561.299L564.924 560.393L564.925 560.378L565.48 559.465C565.516 559.49 566.046 559.824 567.005 560.472C570.604 562.877 580.278 569.496 592.312 578.906C592.852 579.333 593.415 579.769 593.969 580.212C600.365 585.262 607.36 591.05 614.424 597.384C616.2 598.972 617.933 600.558 619.621 602.142C620.152 602.622 620.675 603.109 621.183 603.596C628.338 610.326 634.744 616.912 640.401 623.354Z" fill="white"/>
<path d="M600.841 564.379C600.6 564.981 600.341 565.583 600.072 566.175C598.032 570.753 595.422 575.034 592.309 578.909C591.853 579.465 591.389 580.029 590.906 580.585C589.602 582.076 588.214 583.518 586.743 584.91C580.723 590.558 573.589 594.78 565.837 597.282C565.586 597.366 565.346 597.449 565.095 597.523C565.14 598.255 565.185 598.977 565.229 599.727C565.479 599.653 565.721 599.579 565.971 599.496C574.197 596.925 581.768 592.49 588.136 586.512C589.694 585.054 591.176 583.511 592.577 581.891C593.059 581.345 593.524 580.78 593.971 580.215C597.3 576.068 600.071 571.473 602.208 566.555C602.458 565.962 602.708 565.37 602.949 564.768C602.235 564.638 601.529 564.508 600.841 564.379Z" fill="white"/>
<path d="M634.889 573.028C634.782 573.575 634.657 574.121 634.523 574.668C632.101 585.078 626.942 594.589 619.621 602.144C619.111 602.672 618.593 603.191 618.057 603.691C617.905 603.848 617.735 604.015 617.575 604.163C610.914 610.396 602.913 614.888 594.238 617.266C585.563 619.643 576.466 619.838 567.704 617.832C567.498 617.795 567.284 617.74 567.079 617.693C567.186 618.453 567.284 619.221 567.4 619.981C567.606 620.027 567.802 620.073 568.008 620.11C576.992 622.037 586.288 621.742 595.142 619.25C603.996 616.758 612.158 612.138 618.968 605.765C619.183 605.562 619.406 605.367 619.612 605.154C620.148 604.636 620.666 604.117 621.184 603.598C628.677 595.826 633.976 586.078 636.506 575.408C636.64 574.853 636.765 574.297 636.881 573.741C636.22 573.501 635.559 573.26 634.889 573.028Z" fill="white"/>
<path d="M655.733 582.484C655.741 583.002 655.741 583.53 655.733 584.049C655.583 598.684 650.108 612.722 640.401 623.352C639.901 623.907 639.383 624.444 638.865 624.982C638.302 625.546 637.739 626.111 637.158 626.648C628.171 635.045 616.818 640.225 604.774 641.424C592.73 642.622 580.633 639.777 570.268 633.307C570.09 633.211 569.917 633.106 569.75 632.992C569.964 633.974 570.179 634.937 570.411 635.9C570.572 635.993 570.724 636.085 570.884 636.169C581.55 642.333 593.808 644.885 605.942 643.466C618.077 642.048 629.479 636.731 638.552 628.26C639.133 627.713 639.714 627.167 640.258 626.593C640.795 626.065 641.304 625.528 641.813 624.972C651.656 614.211 657.339 600.075 657.779 585.253C657.797 584.752 657.805 584.252 657.805 583.752C657.126 583.317 656.429 582.9 655.733 582.484Z" fill="white"/>
<path d="M475.114 179.339H318.064C316.757 179.338 315.504 178.799 314.58 177.841C313.656 176.883 313.136 175.584 313.134 174.229V50.6204C313.136 49.2656 313.656 47.9668 314.58 47.0087C315.504 46.0507 316.757 45.5118 318.064 45.5102H510.835C512.142 45.5118 513.395 46.0507 514.319 47.0087C515.244 47.9668 515.763 49.2656 515.765 50.6204V137.202C515.753 148.374 511.466 159.084 503.845 166.984C496.224 174.883 485.892 179.327 475.114 179.339Z" fill="white"/>
<path d="M475.114 179.802H318.064C316.639 179.8 315.272 179.213 314.264 178.168C313.256 177.123 312.689 175.707 312.688 174.229V50.6204C312.689 49.1429 313.256 47.7263 314.264 46.6815C315.272 45.6367 316.639 45.0489 318.064 45.0471H510.835C512.261 45.0488 513.627 45.6366 514.635 46.6814C515.643 47.7262 516.21 49.1428 516.212 50.6204V137.202C516.199 148.497 511.865 159.325 504.161 167.311C496.456 175.297 486.01 179.789 475.114 179.802V179.802ZM318.064 46.8993C317.112 46.9005 316.2 47.293 315.527 47.9906C314.854 48.6881 314.476 49.6339 314.475 50.6204V174.229C314.476 175.216 314.854 176.162 315.527 176.859C316.2 177.557 317.112 177.949 318.064 177.95H475.114C485.536 177.938 495.528 173.641 502.898 166.002C510.268 158.363 514.413 148.006 514.425 137.202V50.6204C514.424 49.6339 514.045 48.6881 513.372 47.9906C512.699 47.293 511.787 46.9005 510.835 46.8993H318.064Z" fill="#F9A826"/>
<path d="M472.729 87.2553H356.17C355.1 87.2553 354.074 86.8146 353.317 86.0303C352.56 85.246 352.135 84.1822 352.135 83.073C352.135 81.9638 352.56 80.9 353.317 80.1157C354.074 79.3314 355.1 78.8907 356.17 78.8907H472.729C473.798 78.8924 474.823 79.3338 475.578 80.1179C476.334 80.9021 476.758 81.9649 476.758 83.073C476.758 84.1811 476.334 85.244 475.578 86.0281C474.823 86.8123 473.798 87.2536 472.729 87.2553V87.2553Z" fill="#FE5D26"/>
<path d="M472.729 116.066H356.17C355.1 116.066 354.074 115.626 353.317 114.841C352.56 114.057 352.135 112.993 352.135 111.884C352.135 110.775 352.56 109.711 353.317 108.927C354.074 108.143 355.1 107.702 356.17 107.702H472.729C473.799 107.702 474.826 108.143 475.582 108.927C476.339 109.711 476.764 110.775 476.764 111.884C476.764 112.993 476.339 114.057 475.582 114.841C474.826 115.626 473.799 116.066 472.729 116.066Z" fill="#FE5D26"/>
<path d="M472.729 145.701H356.17C355.1 145.701 354.074 145.26 353.317 144.476C352.56 143.692 352.135 142.628 352.135 141.519C352.135 140.41 352.56 139.346 353.317 138.561C354.074 137.777 355.1 137.337 356.17 137.337H472.729C473.799 137.337 474.826 137.777 475.582 138.561C476.339 139.346 476.764 140.41 476.764 141.519C476.764 142.628 476.339 143.692 475.582 144.476C474.826 145.26 473.799 145.701 472.729 145.701Z" fill="#FE5D26"/>
<path d="M509.388 75.9502C522.695 75.9502 533.482 64.7684 533.482 50.9751C533.482 37.1817 522.695 26 509.388 26C496.081 26 485.294 37.1817 485.294 50.9751C485.294 64.7684 496.081 75.9502 509.388 75.9502Z" fill="#F9A826"/>
<path d="M506.101 63.9735C505.685 63.9735 505.275 63.873 504.902 63.6801C504.53 63.4872 504.207 63.2071 503.957 62.862L497.384 53.777C497.173 53.4852 497.019 53.1531 496.932 52.7997C496.844 52.4462 496.825 52.0785 496.875 51.7173C496.925 51.3562 497.043 51.0087 497.222 50.6948C497.401 50.3809 497.638 50.1067 497.92 49.8878C498.202 49.6689 498.522 49.5096 498.863 49.4191C499.204 49.3286 499.559 49.3085 499.907 49.3601C500.256 49.4118 500.591 49.534 500.894 49.7199C501.196 49.9058 501.461 50.1516 501.672 50.4435L505.973 56.3866L517.018 39.2134C517.412 38.6003 518.025 38.1747 518.722 38.0302C519.419 37.8857 520.143 38.0341 520.734 38.4429C521.326 38.8516 521.737 39.4871 521.876 40.2096C522.015 40.9321 521.872 41.6824 521.478 42.2955L508.331 62.7363C508.094 63.1059 507.774 63.4111 507.399 63.6262C507.024 63.8414 506.604 63.9601 506.176 63.9726C506.151 63.973 506.126 63.9735 506.101 63.9735Z" fill="white"/>
<path d="M417.148 286.699H260.097C249.32 286.687 238.987 282.243 231.366 274.344C223.746 266.444 219.459 255.734 219.447 244.562V157.98C219.448 156.625 219.968 155.326 220.892 154.368C221.817 153.41 223.07 152.871 224.377 152.87H417.148C418.455 152.871 419.708 153.41 420.632 154.368C421.556 155.326 422.076 156.625 422.077 157.98V281.589C422.076 282.944 421.556 284.243 420.632 285.201C419.708 286.159 418.455 286.698 417.148 286.699V286.699Z" fill="white"/>
<path d="M417.148 287.162H260.097C249.201 287.149 238.755 282.657 231.051 274.671C223.346 266.685 219.012 255.857 219 244.562V157.98C219.002 156.502 219.569 155.086 220.577 154.041C221.585 152.996 222.951 152.408 224.377 152.407H417.148C418.573 152.408 419.94 152.996 420.948 154.041C421.956 155.086 422.523 156.502 422.524 157.98V281.589C422.523 283.067 421.956 284.483 420.948 285.528C419.94 286.573 418.573 287.161 417.148 287.162ZM224.377 154.259C223.425 154.26 222.513 154.653 221.84 155.35C221.167 156.048 220.788 156.993 220.787 157.98V244.562C220.799 255.366 224.944 265.723 232.314 273.362C239.683 281.001 249.675 285.298 260.097 285.31H417.148C418.099 285.309 419.012 284.917 419.685 284.219C420.358 283.521 420.736 282.576 420.737 281.589V157.98C420.736 156.993 420.358 156.048 419.685 155.35C419.012 154.653 418.099 154.26 417.148 154.259H224.377Z" fill="#F9A826"/>
<path d="M379.042 194.615H262.482C261.412 194.615 260.386 194.174 259.629 193.39C258.873 192.606 258.448 191.542 258.448 190.433C258.448 189.323 258.873 188.26 259.629 187.475C260.386 186.691 261.412 186.25 262.482 186.25H379.042C380.112 186.25 381.138 186.691 381.895 187.475C382.651 188.26 383.077 189.323 383.077 190.433C383.077 191.542 382.651 192.606 381.895 193.39C381.138 194.174 380.112 194.615 379.042 194.615Z" fill="#FE5D26"/>
<path d="M379.042 223.426H262.482C261.412 223.426 260.386 222.985 259.629 222.201C258.873 221.417 258.448 220.353 258.448 219.244C258.448 218.135 258.873 217.071 259.629 216.287C260.386 215.502 261.412 215.062 262.482 215.062H379.042C380.112 215.062 381.138 215.502 381.895 216.287C382.651 217.071 383.077 218.135 383.077 219.244C383.077 220.353 382.651 221.417 381.895 222.201C381.138 222.985 380.112 223.426 379.042 223.426Z" fill="#FE5D26"/>
<path d="M379.042 253.061H262.482C261.412 253.061 260.386 252.62 259.629 251.836C258.873 251.051 258.448 249.988 258.448 248.878C258.448 247.769 258.873 246.705 259.629 245.921C260.386 245.137 261.412 244.696 262.482 244.696H379.042C380.112 244.696 381.138 245.137 381.895 245.921C382.651 246.705 383.077 247.769 383.077 248.878C383.077 249.988 382.651 251.051 381.895 251.836C381.138 252.62 380.112 253.061 379.042 253.061Z" fill="#FE5D26"/>
<path d="M417.366 184.302C430.673 184.302 441.46 173.12 441.46 159.327C441.46 145.533 430.673 134.352 417.366 134.352C404.059 134.352 393.272 145.533 393.272 159.327C393.272 173.12 404.059 184.302 417.366 184.302Z" fill="#F9A826"/>
<path d="M414.079 172.325C413.663 172.325 413.252 172.225 412.88 172.032C412.508 171.839 412.185 171.559 411.935 171.214L405.362 162.129C405.151 161.837 404.997 161.505 404.91 161.151C404.822 160.798 404.803 160.43 404.853 160.069C404.902 159.708 405.02 159.36 405.2 159.046C405.379 158.733 405.616 158.458 405.898 158.239C406.179 158.021 406.5 157.861 406.841 157.771C407.182 157.68 407.537 157.66 407.885 157.712C408.233 157.763 408.569 157.886 408.871 158.072C409.174 158.257 409.439 158.503 409.65 158.795L413.95 164.738L424.996 147.565C425.39 146.952 426.003 146.526 426.7 146.382C427.397 146.237 428.121 146.386 428.712 146.795C429.304 147.203 429.714 147.839 429.854 148.561C429.993 149.284 429.85 150.034 429.456 150.647L416.309 171.088C416.071 171.458 415.751 171.763 415.376 171.978C415.001 172.193 414.582 172.312 414.153 172.324C414.129 172.325 414.104 172.325 414.079 172.325Z" fill="white"/>
<path d="M612.828 401.916H393.079C382.302 401.903 371.969 397.46 364.348 389.561C356.728 381.661 352.441 370.951 352.429 359.779V232.43C352.431 230.684 353.101 229.01 354.292 227.775C355.483 226.54 357.099 225.845 358.783 225.843H612.828C614.513 225.845 616.128 226.54 617.319 227.775C618.511 229.01 619.181 230.684 619.182 232.43V395.329C619.181 397.075 618.511 398.749 617.319 399.984C616.128 401.219 614.513 401.914 612.828 401.916V401.916Z" fill="white"/>
<path d="M612.828 402.379H393.079C382.183 402.366 371.737 397.874 364.033 389.888C356.328 381.901 351.994 371.074 351.982 359.779V232.43C351.984 230.561 352.701 228.769 353.976 227.447C355.251 226.126 356.98 225.382 358.783 225.38H612.828C614.631 225.382 616.36 226.126 617.635 227.447C618.91 228.769 619.627 230.561 619.629 232.43V395.329C619.627 397.198 618.91 398.99 617.635 400.312C616.36 401.633 614.631 402.377 612.828 402.379V402.379ZM358.783 227.232C357.454 227.234 356.179 227.782 355.239 228.756C354.299 229.731 353.77 231.052 353.769 232.43V359.779C353.781 370.582 357.926 380.94 365.296 388.579C372.665 396.218 382.657 400.515 393.079 400.527H612.828C614.158 400.525 615.432 399.977 616.372 399.002C617.312 398.028 617.841 396.707 617.842 395.329V232.43C617.841 231.052 617.312 229.731 616.372 228.757C615.432 227.782 614.158 227.234 612.828 227.232H358.783Z" fill="#F9A826"/>
<path d="M562.61 280.71H409.001C408.303 280.711 407.61 280.569 406.965 280.292C406.319 280.016 405.732 279.61 405.237 279.098C404.743 278.586 404.35 277.978 404.083 277.309C403.815 276.64 403.677 275.922 403.677 275.198C403.677 274.474 403.815 273.756 404.083 273.087C404.35 272.418 404.743 271.81 405.237 271.298C405.732 270.786 406.319 270.38 406.965 270.104C407.61 269.827 408.303 269.685 409.001 269.686H562.61C563.309 269.685 564.001 269.827 564.647 270.104C565.293 270.38 565.88 270.786 566.374 271.298C566.869 271.81 567.261 272.418 567.529 273.087C567.796 273.756 567.934 274.474 567.934 275.198C567.934 275.922 567.796 276.64 567.529 277.309C567.261 277.978 566.869 278.586 566.374 279.098C565.88 279.61 565.293 280.016 564.647 280.292C564.001 280.569 563.309 280.711 562.61 280.71Z" fill="#FE5D26"/>
<path d="M562.61 318.679H409.001C408.303 318.68 407.61 318.538 406.965 318.261C406.319 317.984 405.732 317.579 405.237 317.067C404.743 316.555 404.35 315.947 404.083 315.278C403.815 314.609 403.677 313.891 403.677 313.167C403.677 312.443 403.815 311.725 404.083 311.056C404.35 310.387 404.743 309.779 405.237 309.267C405.732 308.755 406.319 308.349 406.965 308.073C407.61 307.796 408.303 307.654 409.001 307.655H562.61C564.02 307.655 565.373 308.236 566.37 309.27C567.367 310.303 567.927 311.705 567.927 313.167C567.927 314.629 567.367 316.031 566.37 317.064C565.373 318.098 564.02 318.679 562.61 318.679Z" fill="#FE5D26"/>
<path d="M562.61 357.733H409.001C407.591 357.733 406.239 357.152 405.242 356.118C404.244 355.085 403.684 353.683 403.684 352.221C403.684 350.759 404.244 349.358 405.242 348.324C406.239 347.29 407.591 346.71 409.001 346.71H562.61C563.309 346.709 564.001 346.85 564.647 347.127C565.293 347.404 565.88 347.809 566.374 348.321C566.869 348.833 567.261 349.441 567.529 350.11C567.796 350.779 567.934 351.497 567.934 352.221C567.934 352.946 567.796 353.663 567.529 354.332C567.261 355.001 566.869 355.609 566.374 356.121C565.88 356.633 565.293 357.039 564.647 357.315C564.001 357.592 563.309 357.734 562.61 357.733Z" fill="#FE5D26"/>
<path d="M613.626 267.428C630.471 267.428 644.127 253.273 644.127 235.813C644.127 218.352 630.471 204.197 613.626 204.197C596.781 204.197 583.126 218.352 583.126 235.813C583.126 253.273 596.781 267.428 613.626 267.428Z" fill="#F9A826"/>
<path d="M609.465 252.267C608.939 252.267 608.419 252.14 607.948 251.896C607.477 251.651 607.067 251.297 606.751 250.86L598.431 239.36C598.163 238.99 597.969 238.57 597.858 238.122C597.748 237.675 597.723 237.209 597.786 236.752C597.849 236.295 597.998 235.855 598.225 235.458C598.453 235.06 598.753 234.713 599.109 234.436C599.466 234.159 599.871 233.958 600.303 233.843C600.734 233.728 601.184 233.703 601.625 233.768C602.066 233.834 602.49 233.988 602.873 234.224C603.257 234.459 603.592 234.77 603.859 235.14L609.303 242.663L623.285 220.924C623.784 220.149 624.56 219.611 625.442 219.429C626.324 219.247 627.239 219.435 627.987 219.952C628.735 220.469 629.255 221.273 629.432 222.186C629.609 223.1 629.428 224.049 628.931 224.825L612.289 250.701C611.988 251.169 611.583 251.555 611.108 251.827C610.633 252.1 610.102 252.25 609.56 252.266C609.528 252.266 609.497 252.267 609.465 252.267Z" fill="white"/>
<path d="M692.642 653.76L680.233 658.062L658.32 610.495L676.635 604.146L692.642 653.76Z" fill="#FFB6B6"/>
<path d="M699.83 665.131L659.818 676.223L659.648 675.699C658.257 671.387 658.569 669.549 660.527 665.481C661.485 663.477 662.816 661.69 664.444 660.223C666.073 658.756 667.965 657.638 670.013 656.935L670.014 656.935L675.468 648.653L690.959 649.674L694.452 648.463L699.83 665.131Z" fill="#F9A826"/>
<path d="M723.3 665.854H710.216L703.991 613.539L723.303 613.54L723.3 665.854Z" fill="#FFB6B6"/>
<path d="M726.637 676.223L684.447 676.222V675.669C684.447 671.122 686.155 669.625 689.257 666.41C690.779 664.825 692.588 663.568 694.581 662.712C696.574 661.857 698.711 661.419 700.869 661.425H700.87L708.576 655.365L722.955 661.426L726.638 661.426L726.637 676.223Z" fill="#F9A826"/>
<path d="M623.718 246.7C623.988 248.121 624.554 249.464 625.379 250.633C626.203 251.803 627.264 252.77 628.488 253.469C629.712 254.167 631.069 254.578 632.463 254.674C633.857 254.77 635.254 254.548 636.556 254.023L651.662 270.37L663.485 263.278L641.84 240.503C640.845 238.294 639.102 236.54 636.943 235.573C634.784 234.607 632.357 234.495 630.123 235.258C627.89 236.022 626.004 237.609 624.823 239.718C623.643 241.827 623.25 244.311 623.718 246.7V246.7Z" fill="#FFB6B6"/>
<path d="M721.478 328.896L728.287 321.593L688.907 283.787L649.272 247.103L638.295 263.182L679.829 303.368L721.478 328.896Z" fill="#E4E4E4"/>
<path d="M697.281 576.995C697.281 567.817 697.456 561.271 697.597 556.01C698.009 540.616 698.12 536.478 692.436 509.967L690.977 503.158L682.369 529.925C679.62 538.464 678.215 547.406 678.208 556.407L691.48 638.951H664.354L644.487 549.713L644.478 522.417C642.727 520.539 641.749 518.03 641.749 515.419C641.749 512.808 642.727 510.299 644.478 508.422L651.078 467.527L657.759 412.413H730.936C730.936 412.413 743.851 440.16 731.017 467.684L731.015 577.029L724.384 652.635H703.913L697.281 576.995Z" fill="#2F2E41"/>
<path d="M726.462 419.084L658.015 413.172L657.659 413.141L663.122 311.222C663.443 304.814 665.612 298.653 669.349 293.537C673.085 288.421 678.217 284.586 684.08 282.527V275.394C684.082 273.629 684.76 271.937 685.964 270.688C687.168 269.44 688.801 268.738 690.504 268.736H700.505C701.699 268.732 702.87 269.074 703.885 269.725C704.901 270.376 705.72 271.308 706.25 272.417L711.141 282.555L729.633 297.89C738.767 305.464 731.416 381.401 731.02 385.407L735.493 408.588C735.739 409.863 735.709 411.179 735.406 412.441C735.103 413.703 734.533 414.879 733.739 415.886C732.945 416.892 731.946 417.704 730.813 418.263C729.68 418.821 728.442 419.113 727.187 419.116C726.947 419.115 726.705 419.104 726.462 419.084Z" fill="#F9A826"/>
<path d="M653.977 445.994C655.059 445.078 655.934 443.927 656.541 442.623C657.147 441.319 657.471 439.892 657.488 438.444C657.505 436.996 657.216 435.562 656.641 434.242C656.065 432.922 655.218 431.75 654.158 430.806L660.949 409.292L649.343 401.826L640.164 432.347C638.753 434.298 638.082 436.717 638.277 439.147C638.472 441.577 639.52 443.848 641.223 445.53C642.925 447.212 645.164 448.189 647.515 448.274C649.865 448.36 652.165 447.548 653.977 445.994V445.994Z" fill="#FFB6B6"/>
<path d="M677.847 299.739L668.424 296.483L654.813 359.427L642.278 422.025L661.132 424.9L675.753 358.342L677.847 299.739Z" fill="#E4E4E4"/>
<path d="M688.137 262.221C700.553 262.221 710.617 251.789 710.617 238.919C710.617 226.05 700.553 215.617 688.137 215.617C675.722 215.617 665.657 226.05 665.657 238.919C665.657 251.789 675.722 262.221 688.137 262.221Z" fill="#FFB6B6"/>
<path d="M657.89 227.508C658.097 225.299 658.708 223.152 659.689 221.18C660.74 223.549 664.018 223.96 666.261 222.781C668.505 221.602 670.009 219.363 671.612 217.354C675.843 212.053 681.661 207.752 688.255 206.969C694.849 206.186 702.118 209.636 704.609 216.013C705.727 214.404 708.113 214.225 709.8 215.16C711.43 216.226 712.702 217.788 713.442 219.632C715.101 223.162 716.039 227.008 716.196 230.932C716.354 234.855 715.727 238.769 714.356 242.429C711.579 249.712 704.722 259.525 697.648 262.274C693.353 263.943 689.015 261.807 684.447 262.274C684.686 257.107 685.653 250.731 685.892 245.564C686.023 242.734 686.042 239.568 684.177 237.496C683.605 236.933 682.921 236.508 682.173 236.249C681.424 235.991 680.63 235.906 679.847 236.001C679.064 236.096 678.31 236.368 677.639 236.798C676.968 237.228 676.397 237.806 675.965 238.49C675.735 236.883 675.211 235.337 674.423 233.933C674.019 233.236 673.435 232.671 672.737 232.301C672.039 231.93 671.256 231.769 670.474 231.836C668.567 232.16 667.389 234.189 665.639 235.039C664.645 235.452 663.553 235.54 662.509 235.292C661.465 235.044 660.519 234.471 659.798 233.651C659.097 232.813 658.567 231.837 658.239 230.781C657.911 229.725 657.793 228.612 657.89 227.508V227.508Z" fill="#2F2E41"/>
<path opacity="0.1" d="M691.047 358.059L664.646 412.792H684.447L691.047 358.059Z" fill="black"/>
<path d="M868 677.898C868 678.043 867.973 678.186 867.92 678.32C867.867 678.454 867.788 678.576 867.69 678.678C867.591 678.781 867.473 678.862 867.344 678.917C867.215 678.972 867.077 679 866.937 679H362.789C362.507 679 362.237 678.884 362.038 678.677C361.838 678.471 361.726 678.19 361.726 677.898C361.726 677.606 361.838 677.325 362.038 677.119C362.237 676.912 362.507 676.796 362.789 676.796H866.937C867.077 676.795 867.215 676.824 867.344 676.879C867.473 676.934 867.591 677.015 867.69 677.118C867.788 677.22 867.867 677.342 867.92 677.476C867.973 677.61 868 677.753 868 677.898V677.898Z" fill="#CACACA"/>
</g>
<defs>
<clipPath id="clip0_0_1">
<rect width="649" height="653" fill="white" transform="translate(219 26)"/>
</clipPath>
</defs>
</svg>
