<svg width="40" height="43" viewBox="0 0 40 43" fill="none" xmlns="http://www.w3.org/2000/svg">
<path d="M7.70957 36.2071L4.96181 3.28778H35.1652L32.4138 36.2019L20.0451 39.8633L7.70957 36.2071Z" fill="#1572B6"/>
<path d="M20.0635 37.0653L30.0587 34.1066L32.4101 5.97998H20.0635V37.0653Z" fill="#33A9DC"/>
<path d="M20.0635 17.9062H25.0672L25.4122 13.7719H20.0635V9.73422H20.077H29.5449L29.4543 10.8171L28.5258 21.9439H20.0635V17.9062Z" fill="white"/>
<path d="M20.0867 28.3917L20.0696 28.3969L15.8587 27.1821L15.5895 23.9621H13.5428H11.7933L12.323 30.3014L20.0684 32.5978L20.0867 32.5926V28.3917Z" fill="#EBEBEB"/>
<path d="M24.7455 21.7728L24.2904 27.1795L20.0733 28.3943V32.5952L27.8248 30.3014L27.8823 29.6196L28.5392 21.7728H24.7455Z" fill="white"/>
<path d="M20.077 9.73422V12.2423V13.7615V13.7719H10.9553H10.943L10.8672 12.864L10.6947 10.8171L10.6041 9.73422H20.077Z" fill="#EBEBEB"/>
<path d="M20.0635 17.9062V20.4143V21.9335V21.9439H15.9174H15.9052L15.8293 21.0361L15.658 18.9891L15.5675 17.9062H20.0635Z" fill="#EBEBEB"/>
</svg>
