<svg width="43" height="42" viewBox="0 0 43 42" fill="none" xmlns="http://www.w3.org/2000/svg">
<g clip-path="url(#clip0_9_22)">
<path d="M3.92329 1.44492C3.54545 1.44492 3.26386 1.73613 3.2974 2.09203L6.48299 35.8832C6.51652 36.2391 6.84177 36.6086 7.20606 36.7043L20.7239 40.2538C21.088 40.3495 21.6838 40.3495 22.048 40.254L35.6068 36.6987C35.971 36.6031 36.2966 36.2337 36.3302 35.8779L39.521 2.09211C39.5547 1.73621 39.2729 1.44499 38.8951 1.44499L3.92329 1.44492ZM15.311 23.7802C15.6888 23.7802 16.0254 24.0714 16.0592 24.4273L16.261 26.5661C16.2945 26.922 16.6202 27.2893 16.9852 27.3824L20.7254 28.3377C21.0901 28.4309 21.3899 28.5072 21.3916 28.5072C21.3932 28.5072 21.6929 28.4308 22.0577 28.3376L25.8046 27.3801C26.1692 27.2869 26.4953 26.9194 26.5291 26.5637L26.9354 22.2787C26.9692 21.9228 26.6877 21.6316 26.3098 21.6316H11.9152C11.5373 21.6316 11.2008 21.3402 11.1672 20.9845L10.0545 9.19492C10.0247 8.87753 10.3093 8.61772 10.6872 8.61772H32.1044C32.4821 8.61772 32.7668 8.87745 32.7369 9.195L32.3762 12.9204H15.6592C15.2813 12.9204 14.9997 13.2116 15.0333 13.5675L15.3277 16.6803C15.3613 17.0361 15.698 17.3274 16.0759 17.3274H31.3566C31.6932 17.3274 31.9437 17.5871 31.9133 17.9046L30.755 30.1747C30.7362 30.3744 30.4231 30.616 30.0589 30.7115L22.0713 32.8061C21.7072 32.9014 21.4046 32.9805 21.399 32.9816C21.3934 32.9828 21.0909 32.9054 20.7267 32.8099L12.7306 30.7116C12.3664 30.616 12.0411 30.2466 12.0075 29.8907L11.4928 24.4273C11.4593 24.0714 11.7411 23.7802 12.119 23.7802H15.311Z" fill="#FB8028"/>
<path d="M21.3863 41.1326C21.0698 41.1326 20.7535 41.0988 20.4956 41.031L6.97792 37.4814C6.276 37.2971 5.69803 36.6408 5.63346 35.9546L2.44779 2.16362C2.41066 1.76887 2.5489 1.37777 2.82689 1.09036C3.10488 0.8031 3.50447 0.638275 3.92329 0.638275H38.895C39.314 0.638275 39.714 0.803258 39.992 1.09091C40.27 1.37848 40.4079 1.76974 40.3704 2.16433L37.1796 35.9497C37.1149 36.6356 36.5367 37.2918 35.8347 37.476L22.2758 41.0313C22.018 41.0989 21.702 41.1326 21.3863 41.1326ZM4.16875 2.25156L7.3326 35.8116C7.34129 35.8428 7.40335 35.9133 7.44215 35.9294L20.952 39.4765C21.1669 39.533 21.6049 39.533 21.8203 39.4766L35.379 35.9213C35.4091 35.9079 35.4694 35.84 35.4811 35.8005L38.6493 2.25156H4.16875ZM21.4117 33.7929C21.2828 33.7929 21.0979 33.7443 20.4986 33.5871L12.5024 31.4887C11.8007 31.3048 11.2225 30.6486 11.1579 29.9623L10.6431 24.4989C10.6059 24.1044 10.7442 23.7133 11.0221 23.4258C11.3001 23.1384 11.6998 22.9734 12.1188 22.9734H15.3108C16.1333 22.9734 16.8351 23.5804 16.9084 24.3552L17.1098 26.4885C17.1211 26.5254 17.1769 26.5882 17.2134 26.6051L20.9476 27.5587C21.1178 27.6022 21.2738 27.642 21.3911 27.6718C21.5084 27.642 21.6645 27.6021 21.835 27.5586L25.5758 26.6025C25.6125 26.5855 25.6685 26.5224 25.6798 26.4853L26.0636 22.4378H11.9152C11.0925 22.4378 10.3908 21.8308 10.3177 21.0557L9.20501 9.26626C9.17031 8.89652 9.29776 8.54164 9.56379 8.26648C9.84404 7.97685 10.2536 7.81076 10.6872 7.81076H32.1044C32.1045 7.81076 32.1046 7.81076 32.1047 7.81076C32.538 7.81076 32.9473 7.97693 33.2275 8.26648C33.4937 8.54156 33.6212 8.89667 33.5865 9.26619L33.2255 12.9937C33.1854 13.4089 32.8172 13.7268 32.3762 13.7268H15.9047L16.1691 16.5205H31.3567C31.7561 16.5205 32.1371 16.678 32.4023 16.9524C32.6675 17.2272 32.7989 17.6007 32.7628 17.9773L31.6044 30.2463C31.5446 30.8813 30.8997 31.3279 30.2869 31.4887L22.2991 33.5833C21.6168 33.762 21.6095 33.7635 21.5827 33.7692C21.5157 33.7832 21.4693 33.7929 21.4117 33.7929ZM12.9642 29.9357L20.9548 32.0325C21.1376 32.0804 21.2859 32.1188 21.3932 32.1463C21.5123 32.1152 21.671 32.0738 21.8435 32.0285L29.831 29.934C29.866 29.9249 29.8979 29.9124 29.9246 29.8998L31.0352 18.1339H16.0759C15.253 18.1339 14.551 17.5267 14.4781 16.7516L14.1837 13.6392C14.1464 13.2444 14.2847 12.8533 14.5626 12.5658C14.8406 12.2783 15.2402 12.1135 15.6591 12.1135H31.5977L31.8582 9.42405H10.9327L12.0086 20.8246H26.3099C26.7289 20.8246 27.1287 20.9895 27.4066 21.277C27.6845 21.5645 27.8225 21.9559 27.785 22.3505L27.3786 26.6353C27.3134 27.3235 26.7323 27.9783 26.0269 28.1585L22.2801 29.1159C21.5069 29.3135 21.5069 29.3135 21.3916 29.3135C21.276 29.3135 21.276 29.3135 20.5032 29.1162L16.7629 28.161C16.0573 27.9808 15.4763 27.3258 15.4115 26.6373L15.2179 24.5866H12.3643L12.8567 29.8132C12.868 29.852 12.9262 29.9182 12.9642 29.9357Z" fill="#C63F00"/>
<path d="M15.9503 4.99433H6.4824C6.01139 4.99433 5.62945 4.63313 5.62945 4.18769C5.62945 3.74225 6.01139 3.38104 6.4824 3.38104H15.9503C16.4213 3.38104 16.8032 3.74225 16.8032 4.18769C16.8032 4.63313 16.4214 4.99433 15.9503 4.99433Z" fill="#C63F00"/>
<path d="M19.4474 4.99433H19.1062C18.6352 4.99433 18.2532 4.63313 18.2532 4.18769C18.2532 3.74225 18.6352 3.38104 19.1062 3.38104H19.4474C19.9184 3.38104 20.3003 3.74225 20.3003 4.18769C20.3003 4.63313 19.9185 4.99433 19.4474 4.99433Z" fill="#C63F00"/>
</g>
<defs>
<clipPath id="clip0_9_22">
<rect width="42.8191" height="40.4944" fill="white" transform="translate(-0.000427246 0.638275)"/>
</clipPath>
</defs>
</svg>
