<svg width="89" height="88" viewBox="0 0 89 88" fill="none" xmlns="http://www.w3.org/2000/svg">
<g clip-path="url(#clip0_9_43)">
<path fill-rule="evenodd" clip-rule="evenodd" d="M84.9959 35.5486L88.681 35.5688C88.681 35.5688 81.8297 44.7933 81.2702 45.5451C81.0885 45.7885 80.8126 46.0511 80.6725 46.3765C80.3186 47.1946 79.9553 48.9893 79.9553 48.9893L76.5834 49.0061C76.5834 49.0061 77.1082 47.1353 77.0865 46.1389C77.0676 45.2685 76.6203 44.3991 76.3694 43.5261C76.1158 42.6424 75.7716 40.9132 75.7716 40.9132H79.2382L79.7163 42.8135L84.9959 35.5486Z" fill="#1A1918"/>
<path fill-rule="evenodd" clip-rule="evenodd" d="M78.0177 37.4941C78.6978 37.9014 79.1152 40.1486 79.1152 40.1486C79.1152 40.1486 75.5567 40.2007 73.6202 40.2007H71.9468L69.9146 48.9893H66.8069C66.8069 48.9893 68.7409 39.4383 69.1975 37.7067C69.3455 37.1461 70.2112 37.2423 71.673 37.2423H74.0075C75.5149 37.2423 77.2768 37.051 78.0177 37.4941ZM63.5496 41.7744C63.5496 41.7744 63.6465 41.2103 63.221 40.5569C62.8575 40 62.5218 39.8705 61.5654 39.8407C58.8653 39.7564 58.9177 41.7446 58.9177 41.7446L63.5496 41.7744ZM66.4781 39.4975C66.8738 40.9157 66.1195 44.2482 66.1195 44.2482C66.1195 44.2482 62.1808 44.1829 60.0234 44.2482C59.3527 44.2685 58.5497 44.1757 58.35 44.4858C58.0691 44.9203 58.4527 45.5892 58.7779 45.8717C59.1521 46.197 59.881 46.2341 60.143 46.2671C61.894 46.4881 65.5589 46.3242 65.5589 46.3242L64.924 49.1173C64.924 49.1173 59.7451 49.3754 57.1547 48.7611C56.6432 48.6401 56.1637 48.3955 55.8397 48.0486C55.7513 47.9538 55.6746 47.8244 55.591 47.7126C55.5242 47.6233 55.3295 47.3302 55.2421 47.0984C54.6504 45.5319 55.3114 42.5309 55.9593 40.9227C56.0345 40.7364 56.1289 40.5 56.2284 40.2992C56.3526 40.0487 56.4577 39.766 56.557 39.6163C56.6237 39.513 56.7065 39.4465 56.7758 39.3491C56.8558 39.2339 56.9489 39.1223 57.0351 39.0226C57.2742 38.7471 57.5455 38.5522 57.8719 38.3101C58.9511 37.5071 60.9043 36.8837 63.2508 37.1223C64.1342 37.2125 65.4684 37.526 66.1195 38.4288C66.294 38.6698 66.3802 39.1484 66.4781 39.4976V39.4975ZM52.224 37.2313L55.2374 37.2137C55.2374 37.2137 53.558 45.1294 52.7021 48.9893H49.2354C46.8127 48.9893 44.6552 49.2874 43.7372 47.564C42.8467 45.8907 43.6966 43.139 44.0957 41.2694C44.3779 39.9464 44.9721 37.2421 44.9721 37.2421L48.0943 37.2137C48.0943 37.2137 47.2121 41.4239 46.8449 43.5261C46.7135 44.2791 46.4423 44.9882 46.7255 45.5449C46.9944 46.0748 47.371 46.1128 48.5184 46.1389C48.8819 46.1475 50.0724 46.1389 50.0724 46.1389L52.224 37.2313ZM38.1192 42.9321C38.4347 41.8183 38.8949 40.6104 38.8364 39.6067C38.7731 38.5332 37.8671 37.5558 37.2825 37.3503C35.5219 36.7327 33.8735 37.5961 33.2184 38.3004C32.3709 39.2125 32.084 40.278 31.7839 41.7448C31.5606 42.8337 31.3776 43.9832 31.7839 44.8324C32.5034 46.3338 34.7472 46.0059 37.163 46.0203C37.5215 45.0654 37.8179 43.993 38.1192 42.9321ZM42.3029 38.538C42.6469 41.0248 41.3264 43.7697 40.4166 46.1567C41.3443 46.2399 42.1571 46.1439 42.2156 46.2126C42.2765 46.3016 41.5939 49.0618 41.3559 49.069C40.6198 49.0879 38.1802 49.1081 37.163 49.1081C33.8434 49.1081 30.7381 49.323 29.1544 47.683C28.5114 47.0167 28.0666 45.874 27.9589 45.07C27.7797 43.728 28.0044 42.2504 28.3176 41.0321C28.601 39.9322 28.9642 38.8942 29.513 37.944C30.9079 35.5249 33.3344 33.7292 37.4019 34.1437C38.1909 34.2244 39.324 34.5676 40.0317 34.975C40.0806 35.0035 40.2518 35.1389 40.291 35.1627C41.2474 35.7673 42.1188 37.2102 42.3029 38.538ZM27.6159 37.2457C27.4151 38.1542 27.2143 39.1841 27.0027 40.0819H23.6558C23.9151 39.0867 24.1136 38.0973 24.3731 37.2315C25.444 37.2315 26.4398 37.2457 27.6161 37.2457M23.5363 40.9133H26.7638C26.3417 43.234 25.5061 46.9774 24.8512 49.5831C24.4412 51.2139 24.1675 52.4038 23.0582 53.2648C22.9589 53.3421 22.9016 53.3053 22.819 53.3836C22.6146 53.5773 21.6691 53.8019 21.1458 53.8586C20.2947 53.9502 19.3324 53.8706 18.2864 53.8492C18.5602 52.8552 18.8698 51.6616 19.1138 50.7706C21.6634 51.0773 21.7279 48.6828 22.2215 46.3765C22.5071 45.0439 23.3727 41.4477 23.5363 40.9133Z" fill="#1A1918"/>
<path fill-rule="evenodd" clip-rule="evenodd" d="M16.0055 46.9703L15.9363 47.1485C14.7578 49.4288 12.6694 50.8277 9.69071 50.8894C8.29821 50.918 6.97143 50.5629 6.10468 50.177C4.23425 49.3419 2.66094 47.7934 1.80176 46.1389C0.56926 43.7671 0.346983 40.4679 2.90971 38.0036C2.94928 38.0036 2.59883 38.538 2.6384 38.538L2.56786 38.766C0.721172 44.5105 6.41074 49.4336 11.9415 48.8705C13.2707 48.7351 14.9657 48.0119 16.0055 46.9703Z" fill="#21609B"/>
<path fill-rule="evenodd" clip-rule="evenodd" d="M12.6588 44.595C14.0503 44.6044 15.5037 43.9582 16.3644 43.0511C15.6114 44.9502 13.4311 46.1709 10.5074 45.7827C8.05928 45.4572 5.72726 43.0095 5.48709 40.5569C5.31144 38.772 5.9375 37.7067 6.96923 36.4144C6.61069 37.0903 6.47667 37.6115 6.4433 37.944C6.05139 41.8051 9.54761 44.5747 12.6588 44.595Z" fill="#21609B"/>
<path fill-rule="evenodd" clip-rule="evenodd" d="M16.2245 39.7992C16.0083 40.2921 14.7629 41.2231 14.2128 41.3395C12.035 41.8005 10.6402 40.7744 9.90958 39.6067C9.80102 39.4323 9.60025 38.9561 9.56429 38.8349C9.28094 37.8777 9.41118 36.4298 10.2564 35.6804C10.0018 36.3931 9.96463 37.2207 10.0987 37.7589C10.1799 38.0841 10.4273 38.6522 10.6748 39.0094C11.1252 39.6602 11.411 39.8183 11.9896 40.1639C12.2502 40.3195 12.5298 40.4443 12.6505 40.4785C13.1992 40.639 14.3575 41.0617 16.2247 39.7992" fill="#21609B"/>
</g>
<defs>
<clipPath id="clip0_9_43">
<rect width="88.0851" height="87.5201" fill="white" transform="translate(0.744263 0.225067)"/>
</clipPath>
</defs>
</svg>
