<svg width="68" height="56" viewBox="0 0 68 56" fill="none" xmlns="http://www.w3.org/2000/svg">
<g clip-path="url(#clip0_9_78)">
<path d="M33.8559 42.4204C52.4368 42.4204 67.4995 35.963 67.4995 27.9973C67.4995 20.0317 52.4368 13.5743 33.8559 13.5743C15.2751 13.5743 0.212341 20.0317 0.212341 27.9973C0.212341 35.963 15.2751 42.4204 33.8559 42.4204Z" fill="url(#paint0_radial_9_78)"/>
<path d="M33.8559 41.3488C51.711 41.3488 66.1853 35.3712 66.1853 27.9973C66.1853 20.6235 51.711 14.6458 33.8559 14.6458C16.0009 14.6458 1.52655 20.6235 1.52655 27.9973C1.52655 35.3712 16.0009 41.3488 33.8559 41.3488Z" fill="#6181B6"/>
<path d="M40.4007 32.3264L42.004 25.5971C42.372 24.0755 42.0566 22.9396 41.1103 22.2324C40.1904 21.5466 38.6134 21.2037 36.3004 21.2037H33.5142L34.3028 17.8605C34.3291 17.7319 34.3028 17.6033 34.1976 17.4961C34.0925 17.389 33.9611 17.3461 33.8034 17.3461H29.9659C29.7031 17.3461 29.4928 17.4961 29.4402 17.689L27.7318 24.8255C27.574 24.0112 27.2061 23.3254 26.5753 22.7682C25.445 21.7181 23.684 21.1823 21.2922 21.1823H13.9063C13.6435 21.1823 13.4332 21.3323 13.3807 21.5252L9.93744 36.0125C9.91116 36.1411 9.93744 36.2697 10.0426 36.3769C10.1477 36.484 10.2791 36.5269 10.4368 36.5269H14.3006C14.5634 36.5269 14.7737 36.3769 14.8263 36.184L15.6674 32.6907H18.5323C20.0305 32.6907 21.3184 32.5621 22.291 32.305C23.316 32.0264 24.236 31.5763 25.0508 30.9548C25.7079 30.4619 26.2598 29.9047 26.6804 29.3046L25.997 32.1978C25.9707 32.3264 25.997 32.455 26.1021 32.5621C26.2073 32.6693 26.3387 32.7122 26.4964 32.7122H30.3339C30.5967 32.7122 30.807 32.5621 30.8596 32.3693L32.752 24.4398H35.3804C36.5106 24.4398 36.826 24.6112 36.9312 24.697C37.01 24.7613 37.1677 25.0184 36.9837 25.8114L35.4593 32.2192C35.433 32.3478 35.4593 32.4764 35.5644 32.5836C35.6695 32.6907 35.801 32.7336 35.9587 32.7336H39.9013C40.1378 32.6693 40.3481 32.5193 40.4007 32.3264ZM22.6326 26.7543C22.3961 27.7616 21.9493 28.4902 21.2922 28.8974C20.6351 29.3046 19.5574 29.5189 18.1381 29.5189H16.4296L17.665 24.3326H19.8728C21.5024 24.3326 22.1595 24.6112 22.4224 24.847C22.7641 25.1899 22.8429 25.8542 22.6326 26.7543Z" fill="white"/>
<path d="M56.8019 22.7682C55.6717 21.7181 53.9107 21.1823 51.5188 21.1823H44.0804C43.8176 21.1823 43.6073 21.3323 43.5548 21.5252L40.1115 35.9911C40.0853 36.1197 40.1115 36.2483 40.2167 36.3554C40.3218 36.4626 40.4532 36.5054 40.6109 36.5054H44.4747C44.7375 36.5054 44.9478 36.3554 45.0004 36.1625L45.8415 32.6693H48.7064C50.2046 32.6693 51.4925 32.5407 52.4651 32.2835C53.4901 32.0049 54.4101 31.5549 55.2249 30.9334C55.9083 30.419 56.4865 29.8404 56.9071 29.2189C57.3276 28.5974 57.643 27.9116 57.827 27.1615C58.2738 25.297 57.9321 23.8397 56.8019 22.7682ZM52.7805 26.7543C52.5439 27.7616 52.0971 28.4903 51.44 28.8974C50.7829 29.3046 49.7052 29.5189 48.2859 29.5189H46.5774L47.8128 24.3326H50.0206C51.6502 24.3326 52.3073 24.6112 52.5702 24.847C52.9382 25.1899 53.017 25.8542 52.7805 26.7543Z" fill="white"/>
<path d="M19.8728 23.904C21.3447 23.904 22.3172 24.1183 22.8166 24.5684C23.316 25.0184 23.4212 25.7685 23.1583 26.8401C22.8955 27.9545 22.3698 28.7689 21.6076 29.2403C20.8453 29.7118 19.6888 29.9476 18.1381 29.9476H15.7988L17.2444 23.904H19.8728ZM10.4631 36.0768H14.3269L15.2468 32.2407H18.5586C20.0305 32.2407 21.2133 32.1121 22.1595 31.8549C23.1058 31.5977 23.9468 31.1906 24.7354 30.5905C25.3925 30.0976 25.9181 29.5618 26.3124 28.9832C26.7067 28.4045 26.9958 27.7616 27.1535 27.0544C27.574 25.3399 27.2586 24.0112 26.2336 23.0468C25.2085 22.0824 23.5789 21.6109 21.3447 21.6109H13.9063L10.4631 36.0768Z" fill="#000004"/>
<path d="M29.9922 17.7747H33.8297L32.9097 21.6109H36.3266C38.4819 21.6109 39.9538 21.9109 40.7686 22.5324C41.5834 23.1539 41.82 24.1398 41.5046 25.5113L39.9013 32.2407H36.0112L37.5357 25.8328C37.7197 25.1041 37.6408 24.6112 37.3517 24.3541C37.0626 24.0969 36.4055 23.9469 35.433 23.9469H32.3577L30.3864 32.2407H26.549L29.9922 17.7747Z" fill="#000004"/>
<path d="M50.0206 23.904C51.4925 23.904 52.465 24.1183 52.9644 24.5684C53.4638 25.0184 53.569 25.7685 53.3061 26.8401C53.0433 27.9545 52.5176 28.7689 51.7554 29.2403C50.9931 29.7118 49.8366 29.9476 48.2859 29.9476H45.9466L47.3922 23.904H50.0206ZM40.6109 36.0768H44.4747L45.3946 32.2407H48.7064C50.1783 32.2407 51.3611 32.1121 52.3073 31.8549C53.2536 31.5977 54.0947 31.1906 54.8832 30.5905C55.5403 30.0976 56.066 29.5618 56.4602 28.9832C56.8545 28.4045 57.1436 27.7616 57.3013 27.0544C57.7219 25.3399 57.4064 24.0112 56.3814 23.0468C55.3563 22.0824 53.7267 21.6109 51.4925 21.6109H44.0541L40.6109 36.0768Z" fill="#000004"/>
</g>
<defs>
<radialGradient id="paint0_radial_9_78" cx="0" cy="0" r="1" gradientUnits="userSpaceOnUse" gradientTransform="translate(20.4121 18.6465) scale(44.1822 36.0245)">
<stop stop-color="white"/>
<stop offset="0.5" stop-color="#4C6B97"/>
<stop offset="1" stop-color="#231F20"/>
</radialGradient>
<clipPath id="clip0_9_78">
<rect width="67.2872" height="54.8633" fill="white" transform="translate(0.212341 0.608521)"/>
</clipPath>
</defs>
</svg>
