<svg width="40" height="43" viewBox="0 0 40 43" fill="none" xmlns="http://www.w3.org/2000/svg">
<g clip-path="url(#clip0_9_76)">
<path d="M39.7443 21.553C39.7443 33.0992 30.9835 42.4534 20.1698 42.4534C9.35613 42.4534 0.595337 33.0992 0.595337 21.553C0.595337 10.0069 9.35613 0.652725 20.1698 0.652725C30.9835 0.652725 39.7443 10.0069 39.7443 21.553ZM28.7275 8.38192C26.7395 8.45508 25.0071 9.62549 23.7128 11.2453C22.2789 13.0218 21.3296 15.1288 20.6408 17.2737C19.4174 16.2065 18.4742 14.8114 16.5057 14.2053C14.9251 13.688 13.2172 14.0289 11.9118 15.104C11.2414 15.6618 10.7569 16.4246 10.5086 17.2881C9.92257 19.3363 11.1337 21.1651 11.6818 21.8182L12.8856 23.1924C13.1291 23.4589 13.7335 24.1656 13.4337 25.1727C13.1218 26.2752 11.8861 26.9819 10.6113 26.5678C10.0437 26.3836 9.22767 25.9291 9.41241 25.2942C9.48948 25.029 9.66198 24.8396 9.75618 24.6149C9.83937 24.4229 9.88342 24.274 9.90911 24.193C10.1391 23.3831 9.82592 22.3277 9.00991 22.0625C8.2514 21.8104 7.48188 22.0089 7.1748 23.0487C6.83714 24.2335 7.36565 26.3771 10.2088 27.3163C13.5414 28.4044 16.3503 26.4712 16.7516 23.9474C17.0012 22.3695 16.3308 21.1925 15.1074 19.689L14.1078 18.5042C13.5022 17.8654 13.2992 16.763 13.9231 15.9191C14.4516 15.2033 15.204 14.9054 16.4335 15.2594C18.2356 15.7833 19.0333 17.1091 20.3717 18.1842C19.8175 20.1175 19.4529 22.056 19.1287 23.7972L18.9317 25.097C17.9762 30.4435 17.2495 33.3839 15.3508 35.0716C14.9679 35.3577 14.421 35.7927 13.605 35.8254C13.1707 35.8319 13.0239 35.521 13.0239 35.3773C13.0104 35.0573 13.2674 34.907 13.4386 34.7647C13.687 34.6223 14.076 34.3689 14.0442 33.5877C14.0185 32.6629 13.2992 31.8595 12.2593 31.8948C11.4824 31.9209 10.2969 32.7034 10.3422 34.1324C10.3862 35.615 11.6794 36.7241 13.6221 36.6496C14.6681 36.6143 16.9877 36.1598 19.2743 33.2546C21.9376 29.9275 22.6839 26.1106 23.2442 23.3152L23.8694 19.6328C24.218 19.6746 24.5887 19.7021 24.9961 19.7151C28.3091 19.7896 29.9668 17.9543 29.9913 16.6206C30.0109 15.8107 29.4958 15.0152 28.7813 15.0361C28.1513 15.057 27.6081 15.5181 27.4637 16.1791C27.3108 16.921 28.5207 17.595 27.5775 18.2482C26.9083 18.7093 25.7045 19.0372 24.015 18.7707L24.322 16.9537C24.9533 13.5116 25.7228 9.27933 28.6614 9.17875C28.878 9.16438 29.661 9.18397 29.6744 9.73653C29.6805 9.9194 29.6438 9.97557 29.4395 10.3897C29.2474 10.6614 29.152 10.9958 29.1655 11.3289C29.1899 12.2067 29.8151 12.7854 30.7265 12.7501C31.9365 12.7096 32.2815 11.4438 32.268 10.7972C32.2179 9.2728 30.7131 8.32053 28.7251 8.38323L28.7275 8.38192Z" fill="black"/>
</g>
<defs>
<clipPath id="clip0_9_76">
<rect width="39.1489" height="41.8006" fill="white" transform="translate(0.595337 0.652725)"/>
</clipPath>
</defs>
</svg>
